<svg id="my-svg" width="100%" xmlns="http://www.w3.org/2000/svg" xmlns:xlink="http://www.w3.org/1999/xlink" class="erDiagram" style="max-width: 715.984px; background-color: transparent;" viewBox="0 0 715.984375 929.25" role="graphics-document document" aria-roledescription="er"><style>#my-svg{font-family:"trebuchet ms",verdana,arial,sans-serif;font-size:16px;fill:#333;}@keyframes edge-animation-frame{from{stroke-dashoffset:0;}}@keyframes dash{to{stroke-dashoffset:0;}}#my-svg .edge-animation-slow{stroke-dasharray:9,5!important;stroke-dashoffset:900;animation:dash 50s linear infinite;stroke-linecap:round;}#my-svg .edge-animation-fast{stroke-dasharray:9,5!important;stroke-dashoffset:900;animation:dash 20s linear infinite;stroke-linecap:round;}#my-svg .error-icon{fill:#552222;}#my-svg .error-text{fill:#552222;stroke:#552222;}#my-svg .edge-thickness-normal{stroke-width:1px;}#my-svg .edge-thickness-thick{stroke-width:3.5px;}#my-svg .edge-pattern-solid{stroke-dasharray:0;}#my-svg .edge-thickness-invisible{stroke-width:0;fill:none;}#my-svg .edge-pattern-dashed{stroke-dasharray:3;}#my-svg .edge-pattern-dotted{stroke-dasharray:2;}#my-svg .marker{fill:#333333;stroke:#333333;}#my-svg .marker.cross{stroke:#333333;}#my-svg svg{font-family:"trebuchet ms",verdana,arial,sans-serif;font-size:16px;}#my-svg p{margin:0;}#my-svg .entityBox{fill:#ECECFF;stroke:#9370DB;}#my-svg .relationshipLabelBox{fill:hsl(80, 100%, 96.2745098039%);opacity:0.7;background-color:hsl(80, 100%, 96.2745098039%);}#my-svg .relationshipLabelBox rect{opacity:0.5;}#my-svg .labelBkg{background-color:rgba(248.6666666666, 255, 235.9999999999, 0.5);}#my-svg .edgeLabel{background-color:rgba(232,232,232, 0.8);}#my-svg .edgeLabel .label rect{fill:rgba(232,232,232, 0.8);}#my-svg .edgeLabel .label text{fill:#333;}#my-svg .edgeLabel .label{fill:#9370DB;font-size:14px;}#my-svg .label{font-family:"trebuchet ms",verdana,arial,sans-serif;color:#333;}#my-svg .edge-pattern-dashed{stroke-dasharray:8,8;}#my-svg .node rect,#my-svg .node circle,#my-svg .node ellipse,#my-svg .node polygon{fill:#ECECFF;stroke:#9370DB;stroke-width:1px;}#my-svg .relationshipLine{stroke:#333333;stroke-width:1px;fill:none;}#my-svg .marker{fill:none!important;stroke:#333333!important;stroke-width:1;}#my-svg [data-look=neo].labelBkg{background-color:rgba(248.6666666666, 255, 235.9999999999, 0.5);}#my-svg .node .neo-node{stroke:#9370DB;}#my-svg [data-look="neo"].node rect,#my-svg [data-look="neo"].cluster rect,#my-svg [data-look="neo"].node polygon{stroke:#9370DB;filter:drop-shadow(1px 2px 2px rgba(185, 185, 185, 1));}#my-svg [data-look="neo"].node path{stroke:#9370DB;stroke-width:1px;}#my-svg [data-look="neo"].node .outer-path{filter:drop-shadow(1px 2px 2px rgba(185, 185, 185, 1));}#my-svg [data-look="neo"].node .neo-line path{stroke:#9370DB;filter:none;}#my-svg [data-look="neo"].node circle{stroke:#9370DB;filter:drop-shadow(1px 2px 2px rgba(185, 185, 185, 1));}#my-svg [data-look="neo"].node circle .state-start{fill:#000000;}#my-svg [data-look="neo"].icon-shape .icon{fill:#9370DB;filter:drop-shadow(1px 2px 2px rgba(185, 185, 185, 1));}#my-svg [data-look="neo"].icon-shape .icon-neo path{stroke:#9370DB;filter:drop-shadow(1px 2px 2px rgba(185, 185, 185, 1));}#my-svg :root{--mermaid-font-family:"trebuchet ms",verdana,arial,sans-serif;}</style><g><defs><marker id="my-svg_er-onlyOneStart" class="marker onlyOne er" refX="0" refY="9" markerWidth="18" markerHeight="18" orient="auto"><path d="M9,0 L9,18 M15,0 L15,18"/></marker></defs><defs><marker id="my-svg_er-onlyOneEnd" class="marker onlyOne er" refX="18" refY="9" markerWidth="18" markerHeight="18" orient="auto"><path d="M3,0 L3,18 M9,0 L9,18"/></marker></defs><defs><marker id="my-svg_er-zeroOrOneStart" class="marker zeroOrOne er" refX="0" refY="9" markerWidth="30" markerHeight="18" orient="auto"><circle fill="white" cx="21" cy="9" r="6"/><path d="M9,0 L9,18"/></marker></defs><defs><marker id="my-svg_er-zeroOrOneEnd" class="marker zeroOrOne er" refX="30" refY="9" markerWidth="30" markerHeight="18" orient="auto"><circle fill="white" cx="9" cy="9" r="6"/><path d="M21,0 L21,18"/></marker></defs><defs><marker id="my-svg_er-oneOrMoreStart" class="marker oneOrMore er" refX="18" refY="18" markerWidth="45" markerHeight="36" orient="auto"><path d="M0,18 Q 18,0 36,18 Q 18,36 0,18 M42,9 L42,27"/></marker></defs><defs><marker id="my-svg_er-oneOrMoreEnd" class="marker oneOrMore er" refX="27" refY="18" markerWidth="45" markerHeight="36" orient="auto"><path d="M3,9 L3,27 M9,18 Q27,0 45,18 Q27,36 9,18"/></marker></defs><defs><marker id="my-svg_er-zeroOrMoreStart" class="marker zeroOrMore er" refX="18" refY="18" markerWidth="57" markerHeight="36" orient="auto"><circle fill="white" cx="48" cy="18" r="6"/><path d="M0,18 Q18,0 36,18 Q18,36 0,18"/></marker></defs><defs><marker id="my-svg_er-zeroOrMoreEnd" class="marker zeroOrMore er" refX="39" refY="18" markerWidth="57" markerHeight="36" orient="auto"><circle fill="white" cx="9" cy="18" r="6"/><path d="M21,18 Q39,0 57,18 Q39,36 21,18"/></marker></defs><g class="root"><g class="clusters"/><g class="edgePaths"><path d="M161.344,478.25L161.344,486.667C161.344,495.083,161.344,511.917,161.344,528.75C161.344,545.583,161.344,562.417,161.344,570.833L161.344,579.25" id="my-svg-id_entity-SOURCES-0_entity-DOCUMENTS-1_0" class="edge-thickness-normal edge-pattern-solid relationshipLine" style="undefined;;;undefined" data-edge="true" data-et="edge" data-id="id_entity-SOURCES-0_entity-DOCUMENTS-1_0" data-points="W3sieCI6MTYxLjM0Mzc1LCJ5Ijo0NzguMjV9LHsieCI6MTYxLjM0Mzc1LCJ5Ijo1MjguNzV9LHsieCI6MTYxLjM0Mzc1LCJ5Ijo1NzkuMjV9XQ==" data-look="classic" marker-start="url(#my-svg_er-onlyOneStart)" marker-end="url(#my-svg_er-zeroOrMoreEnd)"/><path d="M581.336,371.375L581.336,397.604C581.336,423.833,581.336,476.292,581.336,510.938C581.336,545.583,581.336,562.417,581.336,570.833L581.336,579.25" id="my-svg-id_entity-CONVERSATIONS-2_entity-MESSAGES-3_1" class="edge-thickness-normal edge-pattern-solid relationshipLine" style="undefined;;;undefined" data-edge="true" data-et="edge" data-id="id_entity-CONVERSATIONS-2_entity-MESSAGES-3_1" data-points="W3sieCI6NTgxLjMzNTkzNzUsInkiOjM3MS4zNzV9LHsieCI6NTgxLjMzNTkzNzUsInkiOjUyOC43NX0seyJ4Ijo1ODEuMzM1OTM3NSwieSI6NTc5LjI1fV0=" data-look="classic" marker-start="url(#my-svg_er-onlyOneStart)" marker-end="url(#my-svg_er-zeroOrMoreEnd)"/></g><g class="edgeLabels"><g class="edgeLabel" transform="translate(161.34375, 528.75)"><g class="label" data-id="id_entity-SOURCES-0_entity-DOCUMENTS-1_0" transform="translate(-26.15625, -10.5)"><foreignObject width="52.3125" height="21"><div xmlns="http://www.w3.org/1999/xhtml" class="labelBkg" style="display: table-cell; white-space: nowrap; line-height: 1.5; max-width: 200px; text-align: center;"><span class="edgeLabel"><p>contains</p></span></div></foreignObject></g></g><g class="edgeLabel" transform="translate(581.3359375, 528.75)"><g class="label" data-id="id_entity-CONVERSATIONS-2_entity-MESSAGES-3_1" transform="translate(-26.15625, -10.5)"><foreignObject width="52.3125" height="21"><div xmlns="http://www.w3.org/1999/xhtml" class="labelBkg" style="display: table-cell; white-space: nowrap; line-height: 1.5; max-width: 200px; text-align: center;"><span class="edgeLabel"><p>contains</p></span></div></foreignObject></g></g></g><g class="nodes"><g class="node default" id="my-svg-entity-SOURCES-0" data-look="classic" transform="translate(161.34375, 243.125)"><g class="outer-path" style=""><path d="M-131.078125 -235.125 L131.078125 -235.125 L131.078125 235.125 L-131.078125 235.125" stroke="none" stroke-width="0" fill="#ECECFF"/><path d="M-131.078125 -235.125 C-29.178618037146904 -235.125, 72.72088892570619 -235.125, 131.078125 -235.125 M-131.078125 -235.125 C-43.1399954675321 -235.125, 44.798134064935795 -235.125, 131.078125 -235.125 M131.078125 -235.125 C131.078125 -128.1435768321229, 131.078125 -21.162153664245835, 131.078125 235.125 M131.078125 -235.125 C131.078125 -121.53793350950392, 131.078125 -7.9508670190078305, 131.078125 235.125 M131.078125 235.125 C30.45564433355915 235.125, -70.1668363328817 235.125, -131.078125 235.125 M131.078125 235.125 C31.97274841096946 235.125, -67.13262817806108 235.125, -131.078125 235.125 M-131.078125 235.125 C-131.078125 61.091766427455724, -131.078125 -112.94146714508855, -131.078125 -235.125 M-131.078125 235.125 C-131.078125 51.53866679315897, -131.078125 -132.04766641368207, -131.078125 -235.125" stroke="#9370DB" stroke-width="1.3" fill="none" stroke-dasharray="0 0"/></g><g style="" class="row-rect-odd"><path d="M-131.078125 -192.375 L131.078125 -192.375 L131.078125 -149.625 L-131.078125 -149.625" stroke="none" stroke-width="0" fill="hsl(240, 100%, 100%)"/><path d="M-131.078125 -192.375 C-67.77055991357904 -192.375, -4.46299482715807 -192.375, 131.078125 -192.375 M-131.078125 -192.375 C-28.59040215949146 -192.375, 73.89732068101708 -192.375, 131.078125 -192.375 M131.078125 -192.375 C131.078125 -176.82905591166053, 131.078125 -161.2831118233211, 131.078125 -149.625 M131.078125 -192.375 C131.078125 -183.49565506080202, 131.078125 -174.61631012160407, 131.078125 -149.625 M131.078125 -149.625 C40.429416684879925 -149.625, -50.21929163024015 -149.625, -131.078125 -149.625 M131.078125 -149.625 C56.84684001679359 -149.625, -17.384444966412815 -149.625, -131.078125 -149.625 M-131.078125 -149.625 C-131.078125 -160.66944566638546, -131.078125 -171.71389133277094, -131.078125 -192.375 M-131.078125 -149.625 C-131.078125 -163.80514011833074, -131.078125 -177.9852802366615, -131.078125 -192.375" stroke="#9370DB" stroke-width="1.3" fill="none" stroke-dasharray="0 0"/></g><g style="" class="row-rect-even"><path d="M-131.078125 -149.625 L131.078125 -149.625 L131.078125 -106.875 L-131.078125 -106.875" stroke="none" stroke-width="0" fill="hsl(240, 100%, 97.2745098039%)"/><path d="M-131.078125 -149.625 C-71.14140942166493 -149.625, -11.204693843329864 -149.625, 131.078125 -149.625 M-131.078125 -149.625 C-42.690563353570084 -149.625, 45.69699829285983 -149.625, 131.078125 -149.625 M131.078125 -149.625 C131.078125 -139.6304688677264, 131.078125 -129.63593773545279, 131.078125 -106.875 M131.078125 -149.625 C131.078125 -135.3354546844213, 131.078125 -121.04590936884262, 131.078125 -106.875 M131.078125 -106.875 C30.86659304484472 -106.875, -69.34493891031056 -106.875, -131.078125 -106.875 M131.078125 -106.875 C61.662319547177816 -106.875, -7.753485905644368 -106.875, -131.078125 -106.875 M-131.078125 -106.875 C-131.078125 -119.56849342199347, -131.078125 -132.26198684398693, -131.078125 -149.625 M-131.078125 -106.875 C-131.078125 -119.11291531366335, -131.078125 -131.3508306273267, -131.078125 -149.625" stroke="#9370DB" stroke-width="1.3" fill="none" stroke-dasharray="0 0"/></g><g style="" class="row-rect-odd"><path d="M-131.078125 -106.875 L131.078125 -106.875 L131.078125 -64.125 L-131.078125 -64.125" stroke="none" stroke-width="0" fill="hsl(240, 100%, 100%)"/><path d="M-131.078125 -106.875 C-41.367248148297335 -106.875, 48.34362870340533 -106.875, 131.078125 -106.875 M-131.078125 -106.875 C-26.872649221916546 -106.875, 77.3328265561669 -106.875, 131.078125 -106.875 M131.078125 -106.875 C131.078125 -97.86954478470264, 131.078125 -88.86408956940528, 131.078125 -64.125 M131.078125 -106.875 C131.078125 -95.20512784427699, 131.078125 -83.53525568855397, 131.078125 -64.125 M131.078125 -64.125 C60.829633389906576 -64.125, -9.418858220186848 -64.125, -131.078125 -64.125 M131.078125 -64.125 C72.0577870537868 -64.125, 13.037449107573593 -64.125, -131.078125 -64.125 M-131.078125 -64.125 C-131.078125 -80.89942207437122, -131.078125 -97.67384414874243, -131.078125 -106.875 M-131.078125 -64.125 C-131.078125 -79.61506194696048, -131.078125 -95.10512389392096, -131.078125 -106.875" stroke="#9370DB" stroke-width="1.3" fill="none" stroke-dasharray="0 0"/></g><g style="" class="row-rect-even"><path d="M-131.078125 -64.125 L131.078125 -64.125 L131.078125 -21.375 L-131.078125 -21.375" stroke="none" stroke-width="0" fill="hsl(240, 100%, 97.2745098039%)"/><path d="M-131.078125 -64.125 C-39.4718370979473 -64.125, 52.1344508041054 -64.125, 131.078125 -64.125 M-131.078125 -64.125 C-31.49414124284833 -64.125, 68.08984251430334 -64.125, 131.078125 -64.125 M131.078125 -64.125 C131.078125 -51.45786583382629, 131.078125 -38.79073166765259, 131.078125 -21.375 M131.078125 -64.125 C131.078125 -49.66062561082752, 131.078125 -35.19625122165505, 131.078125 -21.375 M131.078125 -21.375 C49.3100436081196 -21.375, -32.4580377837608 -21.375, -131.078125 -21.375 M131.078125 -21.375 C60.684916791402884 -21.375, -9.708291417194232 -21.375, -131.078125 -21.375 M-131.078125 -21.375 C-131.078125 -32.11881254613257, -131.078125 -42.862625092265134, -131.078125 -64.125 M-131.078125 -21.375 C-131.078125 -31.91211737741046, -131.078125 -42.44923475482092, -131.078125 -64.125" stroke="#9370DB" stroke-width="1.3" fill="none" stroke-dasharray="0 0"/></g><g style="" class="row-rect-odd"><path d="M-131.078125 -21.375 L131.078125 -21.375 L131.078125 21.375 L-131.078125 21.375" stroke="none" stroke-width="0" fill="hsl(240, 100%, 100%)"/><path d="M-131.078125 -21.375 C-61.400615998567645 -21.375, 8.27689300286471 -21.375, 131.078125 -21.375 M-131.078125 -21.375 C-76.85320514205054 -21.375, -22.628285284101082 -21.375, 131.078125 -21.375 M131.078125 -21.375 C131.078125 -8.382725636141641, 131.078125 4.609548727716717, 131.078125 21.375 M131.078125 -21.375 C131.078125 -6.36821626168212, 131.078125 8.63856747663576, 131.078125 21.375 M131.078125 21.375 C65.74143751790395 21.375, 0.4047500358078935 21.375, -131.078125 21.375 M131.078125 21.375 C52.17278341638776 21.375, -26.732558167224482 21.375, -131.078125 21.375 M-131.078125 21.375 C-131.078125 10.495343990236973, -131.078125 -0.3843120195260532, -131.078125 -21.375 M-131.078125 21.375 C-131.078125 11.317604408160289, -131.078125 1.2602088163205778, -131.078125 -21.375" stroke="#9370DB" stroke-width="1.3" fill="none" stroke-dasharray="0 0"/></g><g style="" class="row-rect-even"><path d="M-131.078125 21.375 L131.078125 21.375 L131.078125 64.125 L-131.078125 64.125" stroke="none" stroke-width="0" fill="hsl(240, 100%, 97.2745098039%)"/><path d="M-131.078125 21.375 C-77.75105943315317 21.375, -24.423993866306347 21.375, 131.078125 21.375 M-131.078125 21.375 C-67.17643105545147 21.375, -3.274737110902933 21.375, 131.078125 21.375 M131.078125 21.375 C131.078125 35.43585079113435, 131.078125 49.4967015822687, 131.078125 64.125 M131.078125 21.375 C131.078125 35.78349110839436, 131.078125 50.191982216788716, 131.078125 64.125 M131.078125 64.125 C62.95244590575369 64.125, -5.173233188492617 64.125, -131.078125 64.125 M131.078125 64.125 C71.00073221866357 64.125, 10.923339437327144 64.125, -131.078125 64.125 M-131.078125 64.125 C-131.078125 48.43316034510862, -131.078125 32.74132069021723, -131.078125 21.375 M-131.078125 64.125 C-131.078125 54.75931432589503, -131.078125 45.39362865179007, -131.078125 21.375" stroke="#9370DB" stroke-width="1.3" fill="none" stroke-dasharray="0 0"/></g><g style="" class="row-rect-odd"><path d="M-131.078125 64.125 L131.078125 64.125 L131.078125 106.875 L-131.078125 106.875" stroke="none" stroke-width="0" fill="hsl(240, 100%, 100%)"/><path d="M-131.078125 64.125 C-62.79925411240653 64.125, 5.4796167751869405 64.125, 131.078125 64.125 M-131.078125 64.125 C-49.691840645874464 64.125, 31.69444370825107 64.125, 131.078125 64.125 M131.078125 64.125 C131.078125 79.54178893533033, 131.078125 94.95857787066066, 131.078125 106.875 M131.078125 64.125 C131.078125 78.68845299509371, 131.078125 93.25190599018744, 131.078125 106.875 M131.078125 106.875 C39.85772764102248 106.875, -51.36266971795504 106.875, -131.078125 106.875 M131.078125 106.875 C50.221772700232734 106.875, -30.634579599534533 106.875, -131.078125 106.875 M-131.078125 106.875 C-131.078125 90.41853372988267, -131.078125 73.96206745976534, -131.078125 64.125 M-131.078125 106.875 C-131.078125 93.46595519764782, -131.078125 80.05691039529565, -131.078125 64.125" stroke="#9370DB" stroke-width="1.3" fill="none" stroke-dasharray="0 0"/></g><g style="" class="row-rect-even"><path d="M-131.078125 106.875 L131.078125 106.875 L131.078125 149.625 L-131.078125 149.625" stroke="none" stroke-width="0" fill="hsl(240, 100%, 97.2745098039%)"/><path d="M-131.078125 106.875 C-40.85655028250122 106.875, 49.365024434997565 106.875, 131.078125 106.875 M-131.078125 106.875 C-73.68535163288388 106.875, -16.29257826576776 106.875, 131.078125 106.875 M131.078125 106.875 C131.078125 120.28104219797392, 131.078125 133.68708439594783, 131.078125 149.625 M131.078125 106.875 C131.078125 123.6226507348518, 131.078125 140.3703014697036, 131.078125 149.625 M131.078125 149.625 C36.03728830112095 149.625, -59.003548397758095 149.625, -131.078125 149.625 M131.078125 149.625 C72.11168637152778 149.625, 13.145247743055549 149.625, -131.078125 149.625 M-131.078125 149.625 C-131.078125 136.55079580919028, -131.078125 123.47659161838055, -131.078125 106.875 M-131.078125 149.625 C-131.078125 132.81173453150564, -131.078125 115.99846906301124, -131.078125 106.875" stroke="#9370DB" stroke-width="1.3" fill="none" stroke-dasharray="0 0"/></g><g style="" class="row-rect-odd"><path d="M-131.078125 149.625 L131.078125 149.625 L131.078125 192.375 L-131.078125 192.375" stroke="none" stroke-width="0" fill="hsl(240, 100%, 100%)"/><path d="M-131.078125 149.625 C-34.725342139919505 149.625, 61.62744072016099 149.625, 131.078125 149.625 M-131.078125 149.625 C-29.340065035680965 149.625, 72.39799492863807 149.625, 131.078125 149.625 M131.078125 149.625 C131.078125 162.8788779926957, 131.078125 176.13275598539138, 131.078125 192.375 M131.078125 149.625 C131.078125 161.08522049964046, 131.078125 172.5454409992809, 131.078125 192.375 M131.078125 192.375 C66.39382869056891 192.375, 1.7095323811378194 192.375, -131.078125 192.375 M131.078125 192.375 C37.76776334235943 192.375, -55.54259831528114 192.375, -131.078125 192.375 M-131.078125 192.375 C-131.078125 177.69845656207528, -131.078125 163.02191312415053, -131.078125 149.625 M-131.078125 192.375 C-131.078125 182.18402763611314, -131.078125 171.9930552722263, -131.078125 149.625" stroke="#9370DB" stroke-width="1.3" fill="none" stroke-dasharray="0 0"/></g><g style="" class="row-rect-even"><path d="M-131.078125 192.375 L131.078125 192.375 L131.078125 235.125 L-131.078125 235.125" stroke="none" stroke-width="0" fill="hsl(240, 100%, 97.2745098039%)"/><path d="M-131.078125 192.375 C-44.77409483608261 192.375, 41.52993532783478 192.375, 131.078125 192.375 M-131.078125 192.375 C-38.89965562656738 192.375, 53.27881374686524 192.375, 131.078125 192.375 M131.078125 192.375 C131.078125 204.81783900859156, 131.078125 217.2606780171831, 131.078125 235.125 M131.078125 192.375 C131.078125 207.3261089191345, 131.078125 222.277217838269, 131.078125 235.125 M131.078125 235.125 C54.67141659678734 235.125, -21.735291806425323 235.125, -131.078125 235.125 M131.078125 235.125 C55.45378437601903 235.125, -20.17055624796194 235.125, -131.078125 235.125 M-131.078125 235.125 C-131.078125 223.81277045538275, -131.078125 212.5005409107655, -131.078125 192.375 M-131.078125 235.125 C-131.078125 223.4353071654172, -131.078125 211.74561433083446, -131.078125 192.375" stroke="#9370DB" stroke-width="1.3" fill="none" stroke-dasharray="0 0"/></g><g class="label name" transform="translate(-32, -225.75)" style=""><foreignObject width="64" height="24"><div xmlns="http://www.w3.org/1999/xhtml" style="display: table-cell; white-space: nowrap; line-height: 1.5; max-width: 172px; text-align: start;"><span class="nodeLabel"><p>SOURCES</p></span></div></foreignObject></g><g class="label attribute-type" transform="translate(-118.578125, -183)" style=""><foreignObject width="30.96875" height="24"><div xmlns="http://www.w3.org/1999/xhtml" style="display: table-cell; white-space: nowrap; line-height: 1.5; max-width: 130px; text-align: start;"><span class="nodeLabel"><p>uuid</p></span></div></foreignObject></g><g class="label attribute-name" transform="translate(-3.296875, -183)" style=""><foreignObject width="13.484375" height="24"><div xmlns="http://www.w3.org/1999/xhtml" style="display: table-cell; white-space: nowrap; line-height: 1.5; max-width: 113px; text-align: start;"><span class="nodeLabel"><p>id</p></span></div></foreignObject></g><g class="label attribute-keys" transform="translate(143.578125, -183)" style=""><foreignObject width="0" height="0"><div xmlns="http://www.w3.org/1999/xhtml" style="display: table-cell; white-space: nowrap; line-height: 1.5; max-width: 100px; text-align: start;"><span class="nodeLabel"></span></div></foreignObject></g><g class="label attribute-comment" transform="translate(143.578125, -183)" style=""><foreignObject width="0" height="0"><div xmlns="http://www.w3.org/1999/xhtml" style="display: table-cell; white-space: nowrap; line-height: 1.5; max-width: 100px; text-align: start;"><span class="nodeLabel"></span></div></foreignObject></g><g class="label attribute-type" transform="translate(-118.578125, -140.25)" style=""><foreignObject width="29.4375" height="24"><div xmlns="http://www.w3.org/1999/xhtml" style="display: table-cell; white-space: nowrap; line-height: 1.5; max-width: 126px; text-align: start;"><span class="nodeLabel"><p>text</p></span></div></foreignObject></g><g class="label attribute-name" transform="translate(-3.296875, -140.25)" style=""><foreignObject width="19.6875" height="24"><div xmlns="http://www.w3.org/1999/xhtml" style="display: table-cell; white-space: nowrap; line-height: 1.5; max-width: 119px; text-align: start;"><span class="nodeLabel"><p>url</p></span></div></foreignObject></g><g class="label attribute-keys" transform="translate(143.578125, -140.25)" style=""><foreignObject width="0" height="0"><div xmlns="http://www.w3.org/1999/xhtml" style="display: table-cell; white-space: nowrap; line-height: 1.5; max-width: 100px; text-align: start;"><span class="nodeLabel"></span></div></foreignObject></g><g class="label attribute-comment" transform="translate(143.578125, -140.25)" style=""><foreignObject width="0" height="0"><div xmlns="http://www.w3.org/1999/xhtml" style="display: table-cell; white-space: nowrap; line-height: 1.5; max-width: 100px; text-align: start;"><span class="nodeLabel"></span></div></foreignObject></g><g class="label attribute-type" transform="translate(-118.578125, -97.5)" style=""><foreignObject width="29.4375" height="24"><div xmlns="http://www.w3.org/1999/xhtml" style="display: table-cell; white-space: nowrap; line-height: 1.5; max-width: 126px; text-align: start;"><span class="nodeLabel"><p>text</p></span></div></foreignObject></g><g class="label attribute-name" transform="translate(-3.296875, -97.5)" style=""><foreignObject width="30.703125" height="24"><div xmlns="http://www.w3.org/1999/xhtml" style="display: table-cell; white-space: nowrap; line-height: 1.5; max-width: 126px; text-align: start;"><span class="nodeLabel"><p>title</p></span></div></foreignObject></g><g class="label attribute-keys" transform="translate(143.578125, -97.5)" style=""><foreignObject width="0" height="0"><div xmlns="http://www.w3.org/1999/xhtml" style="display: table-cell; white-space: nowrap; line-height: 1.5; max-width: 100px; text-align: start;"><span class="nodeLabel"></span></div></foreignObject></g><g class="label attribute-comment" transform="translate(143.578125, -97.5)" style=""><foreignObject width="0" height="0"><div xmlns="http://www.w3.org/1999/xhtml" style="display: table-cell; white-space: nowrap; line-height: 1.5; max-width: 100px; text-align: start;"><span class="nodeLabel"></span></div></foreignObject></g><g class="label attribute-type" transform="translate(-118.578125, -54.75)" style=""><foreignObject width="29.4375" height="24"><div xmlns="http://www.w3.org/1999/xhtml" style="display: table-cell; white-space: nowrap; line-height: 1.5; max-width: 126px; text-align: start;"><span class="nodeLabel"><p>text</p></span></div></foreignObject></g><g class="label attribute-name" transform="translate(-3.296875, -54.75)" style=""><foreignObject width="121.875" height="24"><div xmlns="http://www.w3.org/1999/xhtml" style="display: table-cell; white-space: nowrap; line-height: 1.5; max-width: 209px; text-align: start;"><span class="nodeLabel"><p>section_category</p></span></div></foreignObject></g><g class="label attribute-keys" transform="translate(143.578125, -54.75)" style=""><foreignObject width="0" height="0"><div xmlns="http://www.w3.org/1999/xhtml" style="display: table-cell; white-space: nowrap; line-height: 1.5; max-width: 100px; text-align: start;"><span class="nodeLabel"></span></div></foreignObject></g><g class="label attribute-comment" transform="translate(143.578125, -54.75)" style=""><foreignObject width="0" height="0"><div xmlns="http://www.w3.org/1999/xhtml" style="display: table-cell; white-space: nowrap; line-height: 1.5; max-width: 100px; text-align: start;"><span class="nodeLabel"></span></div></foreignObject></g><g class="label attribute-type" transform="translate(-118.578125, -12)" style=""><foreignObject width="29.4375" height="24"><div xmlns="http://www.w3.org/1999/xhtml" style="display: table-cell; white-space: nowrap; line-height: 1.5; max-width: 126px; text-align: start;"><span class="nodeLabel"><p>text</p></span></div></foreignObject></g><g class="label attribute-name" transform="translate(-3.296875, -12)" style=""><foreignObject width="96.171875" height="24"><div xmlns="http://www.w3.org/1999/xhtml" style="display: table-cell; white-space: nowrap; line-height: 1.5; max-width: 185px; text-align: start;"><span class="nodeLabel"><p>content_hash</p></span></div></foreignObject></g><g class="label attribute-keys" transform="translate(143.578125, -12)" style=""><foreignObject width="0" height="0"><div xmlns="http://www.w3.org/1999/xhtml" style="display: table-cell; white-space: nowrap; line-height: 1.5; max-width: 100px; text-align: start;"><span class="nodeLabel"></span></div></foreignObject></g><g class="label attribute-comment" transform="translate(143.578125, -12)" style=""><foreignObject width="0" height="0"><div xmlns="http://www.w3.org/1999/xhtml" style="display: table-cell; white-space: nowrap; line-height: 1.5; max-width: 100px; text-align: start;"><span class="nodeLabel"></span></div></foreignObject></g><g class="label attribute-type" transform="translate(-118.578125, 30.75)" style=""><foreignObject width="29.4375" height="24"><div xmlns="http://www.w3.org/1999/xhtml" style="display: table-cell; white-space: nowrap; line-height: 1.5; max-width: 126px; text-align: start;"><span class="nodeLabel"><p>text</p></span></div></foreignObject></g><g class="label attribute-name" transform="translate(-3.296875, 30.75)" style=""><foreignObject width="90.328125" height="24"><div xmlns="http://www.w3.org/1999/xhtml" style="display: table-cell; white-space: nowrap; line-height: 1.5; max-width: 181px; text-align: start;"><span class="nodeLabel"><p>raw_content</p></span></div></foreignObject></g><g class="label attribute-keys" transform="translate(143.578125, 30.75)" style=""><foreignObject width="0" height="0"><div xmlns="http://www.w3.org/1999/xhtml" style="display: table-cell; white-space: nowrap; line-height: 1.5; max-width: 100px; text-align: start;"><span class="nodeLabel"></span></div></foreignObject></g><g class="label attribute-comment" transform="translate(143.578125, 30.75)" style=""><foreignObject width="0" height="0"><div xmlns="http://www.w3.org/1999/xhtml" style="display: table-cell; white-space: nowrap; line-height: 1.5; max-width: 100px; text-align: start;"><span class="nodeLabel"></span></div></foreignObject></g><g class="label attribute-type" transform="translate(-118.578125, 73.5)" style=""><foreignObject width="38.59375" height="24"><div xmlns="http://www.w3.org/1999/xhtml" style="display: table-cell; white-space: nowrap; line-height: 1.5; max-width: 137px; text-align: start;"><span class="nodeLabel"><p>jsonb</p></span></div></foreignObject></g><g class="label attribute-name" transform="translate(-3.296875, 73.5)" style=""><foreignObject width="116.390625" height="24"><div xmlns="http://www.w3.org/1999/xhtml" style="display: table-cell; white-space: nowrap; line-height: 1.5; max-width: 202px; text-align: start;"><span class="nodeLabel"><p>crawl_metadata</p></span></div></foreignObject></g><g class="label attribute-keys" transform="translate(143.578125, 73.5)" style=""><foreignObject width="0" height="0"><div xmlns="http://www.w3.org/1999/xhtml" style="display: table-cell; white-space: nowrap; line-height: 1.5; max-width: 100px; text-align: start;"><span class="nodeLabel"></span></div></foreignObject></g><g class="label attribute-comment" transform="translate(143.578125, 73.5)" style=""><foreignObject width="0" height="0"><div xmlns="http://www.w3.org/1999/xhtml" style="display: table-cell; white-space: nowrap; line-height: 1.5; max-width: 100px; text-align: start;"><span class="nodeLabel"></span></div></foreignObject></g><g class="label attribute-type" transform="translate(-118.578125, 116.25)" style=""><foreignObject width="56.6875" height="24"><div xmlns="http://www.w3.org/1999/xhtml" style="display: table-cell; white-space: nowrap; line-height: 1.5; max-width: 153px; text-align: start;"><span class="nodeLabel"><p>boolean</p></span></div></foreignObject></g><g class="label attribute-name" transform="translate(-3.296875, 116.25)" style=""><foreignObject width="63.234375" height="24"><div xmlns="http://www.w3.org/1999/xhtml" style="display: table-cell; white-space: nowrap; line-height: 1.5; max-width: 157px; text-align: start;"><span class="nodeLabel"><p>is_active</p></span></div></foreignObject></g><g class="label attribute-keys" transform="translate(143.578125, 116.25)" style=""><foreignObject width="0" height="0"><div xmlns="http://www.w3.org/1999/xhtml" style="display: table-cell; white-space: nowrap; line-height: 1.5; max-width: 100px; text-align: start;"><span class="nodeLabel"></span></div></foreignObject></g><g class="label attribute-comment" transform="translate(143.578125, 116.25)" style=""><foreignObject width="0" height="0"><div xmlns="http://www.w3.org/1999/xhtml" style="display: table-cell; white-space: nowrap; line-height: 1.5; max-width: 100px; text-align: start;"><span class="nodeLabel"></span></div></foreignObject></g><g class="label attribute-type" transform="translate(-118.578125, 159)" style=""><foreignObject width="90.28125" height="24"><div xmlns="http://www.w3.org/1999/xhtml" style="display: table-cell; white-space: nowrap; line-height: 1.5; max-width: 180px; text-align: start;"><span class="nodeLabel"><p>timestamptz</p></span></div></foreignObject></g><g class="label attribute-name" transform="translate(-3.296875, 159)" style=""><foreignObject width="78.40625" height="24"><div xmlns="http://www.w3.org/1999/xhtml" style="display: table-cell; white-space: nowrap; line-height: 1.5; max-width: 166px; text-align: start;"><span class="nodeLabel"><p>created_at</p></span></div></foreignObject></g><g class="label attribute-keys" transform="translate(143.578125, 159)" style=""><foreignObject width="0" height="0"><div xmlns="http://www.w3.org/1999/xhtml" style="display: table-cell; white-space: nowrap; line-height: 1.5; max-width: 100px; text-align: start;"><span class="nodeLabel"></span></div></foreignObject></g><g class="label attribute-comment" transform="translate(143.578125, 159)" style=""><foreignObject width="0" height="0"><div xmlns="http://www.w3.org/1999/xhtml" style="display: table-cell; white-space: nowrap; line-height: 1.5; max-width: 100px; text-align: start;"><span class="nodeLabel"></span></div></foreignObject></g><g class="label attribute-type" transform="translate(-118.578125, 201.75)" style=""><foreignObject width="90.28125" height="24"><div xmlns="http://www.w3.org/1999/xhtml" style="display: table-cell; white-space: nowrap; line-height: 1.5; max-width: 180px; text-align: start;"><span class="nodeLabel"><p>timestamptz</p></span></div></foreignObject></g><g class="label attribute-name" transform="translate(-3.296875, 201.75)" style=""><foreignObject width="82.109375" height="24"><div xmlns="http://www.w3.org/1999/xhtml" style="display: table-cell; white-space: nowrap; line-height: 1.5; max-width: 172px; text-align: start;"><span class="nodeLabel"><p>updated_at</p></span></div></foreignObject></g><g class="label attribute-keys" transform="translate(143.578125, 201.75)" style=""><foreignObject width="0" height="0"><div xmlns="http://www.w3.org/1999/xhtml" style="display: table-cell; white-space: nowrap; line-height: 1.5; max-width: 100px; text-align: start;"><span class="nodeLabel"></span></div></foreignObject></g><g class="label attribute-comment" transform="translate(143.578125, 201.75)" style=""><foreignObject width="0" height="0"><div xmlns="http://www.w3.org/1999/xhtml" style="display: table-cell; white-space: nowrap; line-height: 1.5; max-width: 100px; text-align: start;"><span class="nodeLabel"></span></div></foreignObject></g><g class="divider"><path d="M-131.078125 -192.37505 L-131.078125 -192.37495 L131.078125 -192.37495 L131.078125 -192.37505" stroke="none" stroke-width="0" fill="#ECECFF" fill-rule="evenodd"/><path d="M-131.078125 -192.37505 C-131.078125 -192.3750215805782, -131.078125 -192.3749931611564, -131.078125 -192.37495 M-131.078125 -192.37505 C-131.078125 -192.37501956831596, -131.078125 -192.37498913663197, -131.078125 -192.37495 M-131.078125 -192.37495 C-76.55795441331404 -192.37495, -22.037783826628058 -192.37495, 131.078125 -192.37495 M-131.078125 -192.37495 C-42.45723941682475 -192.37495, 46.1636461663505 -192.37495, 131.078125 -192.37495 M131.078125 -192.37495 C131.078125 -192.37498709057797, 131.078125 -192.37502418115594, 131.078125 -192.37505 M131.078125 -192.37495 C131.078125 -192.37497477307014, 131.078125 -192.3749995461403, 131.078125 -192.37505 M131.078125 -192.37505 C42.09412376490769 -192.37505, -46.889877470184615 -192.37505, -131.078125 -192.37505 M131.078125 -192.37505 C50.24983816037545 -192.37505, -30.578448679249107 -192.37505, -131.078125 -192.37505" stroke="#9370DB" stroke-width="1.3" fill="none" stroke-dasharray="0 0"/></g><g class="divider"><path d="M-15.796925 -192.375 L-15.796825 -192.375 L-15.796825 235.125 L-15.796925 235.125" stroke="none" stroke-width="0" fill="#ECECFF" fill-rule="evenodd"/><path d="M-15.796925 -192.375 C-15.79690156876909 -192.375, -15.79687813753818 -192.375, -15.796825 -192.375 M-15.796925 -192.375 C-15.796896229858142 -192.375, -15.796867459716282 -192.375, -15.796825 -192.375 M-15.796825 -192.375 C-15.796825 -94.45765602119712, -15.796825 3.4596879576057518, -15.796825 235.125 M-15.796825 -192.375 C-15.796825 -68.44881350186687, -15.796825 55.47737299626627, -15.796825 235.125 M-15.796825 235.125 C-15.796859099701061 235.125, -15.796893199402122 235.125, -15.796925 235.125 M-15.796825 235.125 C-15.796846475026939 235.125, -15.796867950053878 235.125, -15.796925 235.125 M-15.796925 235.125 C-15.796925 132.73979556701298, -15.796925 30.354591134025952, -15.796925 -192.375 M-15.796925 235.125 C-15.796925 82.3906812840386, -15.796925 -70.34363743192279, -15.796925 -192.375" stroke="#9370DB" stroke-width="1.3" fill="none" stroke-dasharray="0 0"/></g><g class="divider"><path d="M-131.078125 -192.37505 L-131.078125 -192.37495 L131.078125 -192.37495 L131.078125 -192.37505" stroke="none" stroke-width="0" fill="#ECECFF" fill-rule="evenodd"/><path d="M-131.078125 -192.37505 C-131.078125 -192.3750161999545, -131.078125 -192.37498239990902, -131.078125 -192.37495 M-131.078125 -192.37505 C-131.078125 -192.37501703355846, -131.078125 -192.37498406711694, -131.078125 -192.37495 M-131.078125 -192.37495 C-54.059657355474044 -192.37495, 22.95881028905191 -192.37495, 131.078125 -192.37495 M-131.078125 -192.37495 C-63.65650529632585 -192.37495, 3.7651144073483067 -192.37495, 131.078125 -192.37495 M131.078125 -192.37495 C131.078125 -192.37497301472703, 131.078125 -192.37499602945402, 131.078125 -192.37505 M131.078125 -192.37495 C131.078125 -192.3749895192302, 131.078125 -192.37502903846038, 131.078125 -192.37505 M131.078125 -192.37505 C62.86837880043838 -192.37505, -5.341367399123243 -192.37505, -131.078125 -192.37505 M131.078125 -192.37505 C41.18076176669287 -192.37505, -48.716601466614264 -192.37505, -131.078125 -192.37505" stroke="#9370DB" stroke-width="1.3" fill="none" stroke-dasharray="0 0"/></g></g><g class="node default" id="my-svg-entity-DOCUMENTS-1" data-look="classic" transform="translate(161.34375, 750.25)"><g class="outer-path" style=""><path d="M-153.34375 -171 L153.34375 -171 L153.34375 171 L-153.34375 171" stroke="none" stroke-width="0" fill="#ECECFF"/><path d="M-153.34375 -171 C-67.10017126219374 -171, 19.14340747561252 -171, 153.34375 -171 M-153.34375 -171 C-37.73625059136674 -171, 77.87124881726652 -171, 153.34375 -171 M153.34375 -171 C153.34375 -100.4747500286842, 153.34375 -29.949500057368397, 153.34375 171 M153.34375 -171 C153.34375 -101.6037606144918, 153.34375 -32.20752122898361, 153.34375 171 M153.34375 171 C76.35328769760726 171, -0.6371746047854856 171, -153.34375 171 M153.34375 171 C63.31007786135717 171, -26.723594277285656 171, -153.34375 171 M-153.34375 171 C-153.34375 70.11580024842904, -153.34375 -30.76839950314192, -153.34375 -171 M-153.34375 171 C-153.34375 85.74960543856868, -153.34375 0.499210877137358, -153.34375 -171" stroke="#9370DB" stroke-width="1.3" fill="none" stroke-dasharray="0 0"/></g><g style="" class="row-rect-odd"><path d="M-153.34375 -128.25 L153.34375 -128.25 L153.34375 -85.5 L-153.34375 -85.5" stroke="none" stroke-width="0" fill="hsl(240, 100%, 100%)"/><path d="M-153.34375 -128.25 C-37.14290867953349 -128.25, 79.05793264093302 -128.25, 153.34375 -128.25 M-153.34375 -128.25 C-73.2541498690125 -128.25, 6.835450261975012 -128.25, 153.34375 -128.25 M153.34375 -128.25 C153.34375 -118.29540294602705, 153.34375 -108.3408058920541, 153.34375 -85.5 M153.34375 -128.25 C153.34375 -114.6948359211606, 153.34375 -101.1396718423212, 153.34375 -85.5 M153.34375 -85.5 C77.48327167075458 -85.5, 1.6227933415091513 -85.5, -153.34375 -85.5 M153.34375 -85.5 C80.95866404017792 -85.5, 8.573578080355844 -85.5, -153.34375 -85.5 M-153.34375 -85.5 C-153.34375 -94.33768302462929, -153.34375 -103.17536604925859, -153.34375 -128.25 M-153.34375 -85.5 C-153.34375 -102.40845327308303, -153.34375 -119.31690654616605, -153.34375 -128.25" stroke="#9370DB" stroke-width="1.3" fill="none" stroke-dasharray="0 0"/></g><g style="" class="row-rect-even"><path d="M-153.34375 -85.5 L153.34375 -85.5 L153.34375 -42.75 L-153.34375 -42.75" stroke="none" stroke-width="0" fill="hsl(240, 100%, 97.2745098039%)"/><path d="M-153.34375 -85.5 C-47.29614667492389 -85.5, 58.75145665015222 -85.5, 153.34375 -85.5 M-153.34375 -85.5 C-60.552724906258334 -85.5, 32.23830018748333 -85.5, 153.34375 -85.5 M153.34375 -85.5 C153.34375 -69.96061516938623, 153.34375 -54.42123033877246, 153.34375 -42.75 M153.34375 -85.5 C153.34375 -69.91548471760512, 153.34375 -54.330969435210264, 153.34375 -42.75 M153.34375 -42.75 C77.83522214511397 -42.75, 2.326694290227948 -42.75, -153.34375 -42.75 M153.34375 -42.75 C67.39753300155569 -42.75, -18.548683996888627 -42.75, -153.34375 -42.75 M-153.34375 -42.75 C-153.34375 -56.1516688351834, -153.34375 -69.5533376703668, -153.34375 -85.5 M-153.34375 -42.75 C-153.34375 -57.660769675782774, -153.34375 -72.57153935156555, -153.34375 -85.5" stroke="#9370DB" stroke-width="1.3" fill="none" stroke-dasharray="0 0"/></g><g style="" class="row-rect-odd"><path d="M-153.34375 -42.75 L153.34375 -42.75 L153.34375 0 L-153.34375 0" stroke="none" stroke-width="0" fill="hsl(240, 100%, 100%)"/><path d="M-153.34375 -42.75 C-42.30638474882673 -42.75, 68.73098050234654 -42.75, 153.34375 -42.75 M-153.34375 -42.75 C-72.4280067198521 -42.75, 8.487736560295787 -42.75, 153.34375 -42.75 M153.34375 -42.75 C153.34375 -26.848254969032475, 153.34375 -10.946509938064946, 153.34375 0 M153.34375 -42.75 C153.34375 -26.568733031349534, 153.34375 -10.387466062699069, 153.34375 0 M153.34375 0 C70.19950944772413 0, -12.94473110455175 0, -153.34375 0 M153.34375 0 C58.48745696854273 0, -36.36883606291454 0, -153.34375 0 M-153.34375 0 C-153.34375 -10.881140162270865, -153.34375 -21.76228032454173, -153.34375 -42.75 M-153.34375 0 C-153.34375 -15.611965121868986, -153.34375 -31.22393024373797, -153.34375 -42.75" stroke="#9370DB" stroke-width="1.3" fill="none" stroke-dasharray="0 0"/></g><g style="" class="row-rect-even"><path d="M-153.34375 0 L153.34375 0 L153.34375 42.75 L-153.34375 42.75" stroke="none" stroke-width="0" fill="hsl(240, 100%, 97.2745098039%)"/><path d="M-153.34375 0 C-31.21415688301866 0, 90.91543623396268 0, 153.34375 0 M-153.34375 0 C-62.76046031002073 0, 27.822829379958534 0, 153.34375 0 M153.34375 0 C153.34375 13.372143589285809, 153.34375 26.744287178571618, 153.34375 42.75 M153.34375 0 C153.34375 12.645572333039901, 153.34375 25.291144666079802, 153.34375 42.75 M153.34375 42.75 C62.8842322624473 42.75, -27.575285475105403 42.75, -153.34375 42.75 M153.34375 42.75 C32.4582571057004 42.75, -88.4272357885992 42.75, -153.34375 42.75 M-153.34375 42.75 C-153.34375 27.86172230927923, -153.34375 12.97344461855846, -153.34375 0 M-153.34375 42.75 C-153.34375 34.135220264093036, -153.34375 25.520440528186075, -153.34375 0" stroke="#9370DB" stroke-width="1.3" fill="none" stroke-dasharray="0 0"/></g><g style="" class="row-rect-odd"><path d="M-153.34375 42.75 L153.34375 42.75 L153.34375 85.5 L-153.34375 85.5" stroke="none" stroke-width="0" fill="hsl(240, 100%, 100%)"/><path d="M-153.34375 42.75 C-46.374878797958374 42.75, 60.59399240408325 42.75, 153.34375 42.75 M-153.34375 42.75 C-84.46575236361838 42.75, -15.587754727236756 42.75, 153.34375 42.75 M153.34375 42.75 C153.34375 59.3967828255097, 153.34375 76.0435656510194, 153.34375 85.5 M153.34375 42.75 C153.34375 52.91963874323122, 153.34375 63.089277486462436, 153.34375 85.5 M153.34375 85.5 C56.00248460110892 85.5, -41.338780797782164 85.5, -153.34375 85.5 M153.34375 85.5 C49.27735119741041 85.5, -54.78904760517918 85.5, -153.34375 85.5 M-153.34375 85.5 C-153.34375 76.31310363163021, -153.34375 67.12620726326043, -153.34375 42.75 M-153.34375 85.5 C-153.34375 76.846574382031, -153.34375 68.19314876406199, -153.34375 42.75" stroke="#9370DB" stroke-width="1.3" fill="none" stroke-dasharray="0 0"/></g><g style="" class="row-rect-even"><path d="M-153.34375 85.5 L153.34375 85.5 L153.34375 128.25 L-153.34375 128.25" stroke="none" stroke-width="0" fill="hsl(240, 100%, 97.2745098039%)"/><path d="M-153.34375 85.5 C-46.367503210503074 85.5, 60.60874357899385 85.5, 153.34375 85.5 M-153.34375 85.5 C-61.51806847991854 85.5, 30.30761304016292 85.5, 153.34375 85.5 M153.34375 85.5 C153.34375 98.13232508732946, 153.34375 110.76465017465893, 153.34375 128.25 M153.34375 85.5 C153.34375 96.76864196851713, 153.34375 108.03728393703426, 153.34375 128.25 M153.34375 128.25 C86.0881203857835 128.25, 18.832490771566995 128.25, -153.34375 128.25 M153.34375 128.25 C89.20562970939831 128.25, 25.067509418796618 128.25, -153.34375 128.25 M-153.34375 128.25 C-153.34375 116.49210477419061, -153.34375 104.73420954838122, -153.34375 85.5 M-153.34375 128.25 C-153.34375 114.50699080365627, -153.34375 100.76398160731252, -153.34375 85.5" stroke="#9370DB" stroke-width="1.3" fill="none" stroke-dasharray="0 0"/></g><g style="" class="row-rect-odd"><path d="M-153.34375 128.25 L153.34375 128.25 L153.34375 171 L-153.34375 171" stroke="none" stroke-width="0" fill="hsl(240, 100%, 100%)"/><path d="M-153.34375 128.25 C-43.29444319703515 128.25, 66.7548636059297 128.25, 153.34375 128.25 M-153.34375 128.25 C-43.91097905772713 128.25, 65.52179188454573 128.25, 153.34375 128.25 M153.34375 128.25 C153.34375 141.23708359345918, 153.34375 154.22416718691835, 153.34375 171 M153.34375 128.25 C153.34375 138.08145857549923, 153.34375 147.91291715099845, 153.34375 171 M153.34375 171 C78.2377981125229 171, 3.1318462250457912 171, -153.34375 171 M153.34375 171 C57.46493743564304 171, -38.413875128713926 171, -153.34375 171 M-153.34375 171 C-153.34375 156.1338212669499, -153.34375 141.2676425338998, -153.34375 128.25 M-153.34375 171 C-153.34375 156.0902768947826, -153.34375 141.1805537895652, -153.34375 128.25" stroke="#9370DB" stroke-width="1.3" fill="none" stroke-dasharray="0 0"/></g><g class="label name" transform="translate(-43.828125, -161.625)" style=""><foreignObject width="87.65625" height="24"><div xmlns="http://www.w3.org/1999/xhtml" style="display: table-cell; white-space: nowrap; line-height: 1.5; max-width: 201px; text-align: start;"><span class="nodeLabel"><p>DOCUMENTS</p></span></div></foreignObject></g><g class="label attribute-type" transform="translate(-140.84375, -118.875)" style=""><foreignObject width="30.96875" height="24"><div xmlns="http://www.w3.org/1999/xhtml" style="display: table-cell; white-space: nowrap; line-height: 1.5; max-width: 130px; text-align: start;"><span class="nodeLabel"><p>uuid</p></span></div></foreignObject></g><g class="label attribute-name" transform="translate(-25.5625, -118.875)" style=""><foreignObject width="13.484375" height="24"><div xmlns="http://www.w3.org/1999/xhtml" style="display: table-cell; white-space: nowrap; line-height: 1.5; max-width: 113px; text-align: start;"><span class="nodeLabel"><p>id</p></span></div></foreignObject></g><g class="label attribute-keys" transform="translate(165.84375, -118.875)" style=""><foreignObject width="0" height="0"><div xmlns="http://www.w3.org/1999/xhtml" style="display: table-cell; white-space: nowrap; line-height: 1.5; max-width: 100px; text-align: start;"><span class="nodeLabel"></span></div></foreignObject></g><g class="label attribute-comment" transform="translate(165.84375, -118.875)" style=""><foreignObject width="0" height="0"><div xmlns="http://www.w3.org/1999/xhtml" style="display: table-cell; white-space: nowrap; line-height: 1.5; max-width: 100px; text-align: start;"><span class="nodeLabel"></span></div></foreignObject></g><g class="label attribute-type" transform="translate(-140.84375, -76.125)" style=""><foreignObject width="30.96875" height="24"><div xmlns="http://www.w3.org/1999/xhtml" style="display: table-cell; white-space: nowrap; line-height: 1.5; max-width: 130px; text-align: start;"><span class="nodeLabel"><p>uuid</p></span></div></foreignObject></g><g class="label attribute-name" transform="translate(-25.5625, -76.125)" style=""><foreignObject width="68.546875" height="24"><div xmlns="http://www.w3.org/1999/xhtml" style="display: table-cell; white-space: nowrap; line-height: 1.5; max-width: 163px; text-align: start;"><span class="nodeLabel"><p>source_id</p></span></div></foreignObject></g><g class="label attribute-keys" transform="translate(165.84375, -76.125)" style=""><foreignObject width="0" height="0"><div xmlns="http://www.w3.org/1999/xhtml" style="display: table-cell; white-space: nowrap; line-height: 1.5; max-width: 100px; text-align: start;"><span class="nodeLabel"></span></div></foreignObject></g><g class="label attribute-comment" transform="translate(165.84375, -76.125)" style=""><foreignObject width="0" height="0"><div xmlns="http://www.w3.org/1999/xhtml" style="display: table-cell; white-space: nowrap; line-height: 1.5; max-width: 100px; text-align: start;"><span class="nodeLabel"></span></div></foreignObject></g><g class="label attribute-type" transform="translate(-140.84375, -33.375)" style=""><foreignObject width="29.4375" height="24"><div xmlns="http://www.w3.org/1999/xhtml" style="display: table-cell; white-space: nowrap; line-height: 1.5; max-width: 126px; text-align: start;"><span class="nodeLabel"><p>text</p></span></div></foreignObject></g><g class="label attribute-name" transform="translate(-25.5625, -33.375)" style=""><foreignObject width="55.40625" height="24"><div xmlns="http://www.w3.org/1999/xhtml" style="display: table-cell; white-space: nowrap; line-height: 1.5; max-width: 148px; text-align: start;"><span class="nodeLabel"><p>content</p></span></div></foreignObject></g><g class="label attribute-keys" transform="translate(165.84375, -33.375)" style=""><foreignObject width="0" height="0"><div xmlns="http://www.w3.org/1999/xhtml" style="display: table-cell; white-space: nowrap; line-height: 1.5; max-width: 100px; text-align: start;"><span class="nodeLabel"></span></div></foreignObject></g><g class="label attribute-comment" transform="translate(165.84375, -33.375)" style=""><foreignObject width="0" height="0"><div xmlns="http://www.w3.org/1999/xhtml" style="display: table-cell; white-space: nowrap; line-height: 1.5; max-width: 100px; text-align: start;"><span class="nodeLabel"></span></div></foreignObject></g><g class="label attribute-type" transform="translate(-140.84375, 9.375)" style=""><foreignObject width="29.4375" height="24"><div xmlns="http://www.w3.org/1999/xhtml" style="display: table-cell; white-space: nowrap; line-height: 1.5; max-width: 126px; text-align: start;"><span class="nodeLabel"><p>text</p></span></div></foreignObject></g><g class="label attribute-name" transform="translate(-25.5625, 9.375)" style=""><foreignObject width="166.40625" height="24"><div xmlns="http://www.w3.org/1999/xhtml" style="display: table-cell; white-space: nowrap; line-height: 1.5; max-width: 251px; text-align: start;"><span class="nodeLabel"><p>embedding_vector_384</p></span></div></foreignObject></g><g class="label attribute-keys" transform="translate(165.84375, 9.375)" style=""><foreignObject width="0" height="0"><div xmlns="http://www.w3.org/1999/xhtml" style="display: table-cell; white-space: nowrap; line-height: 1.5; max-width: 100px; text-align: start;"><span class="nodeLabel"></span></div></foreignObject></g><g class="label attribute-comment" transform="translate(165.84375, 9.375)" style=""><foreignObject width="0" height="0"><div xmlns="http://www.w3.org/1999/xhtml" style="display: table-cell; white-space: nowrap; line-height: 1.5; max-width: 100px; text-align: start;"><span class="nodeLabel"></span></div></foreignObject></g><g class="label attribute-type" transform="translate(-140.84375, 52.125)" style=""><foreignObject width="19.65625" height="24"><div xmlns="http://www.w3.org/1999/xhtml" style="display: table-cell; white-space: nowrap; line-height: 1.5; max-width: 117px; text-align: start;"><span class="nodeLabel"><p>int</p></span></div></foreignObject></g><g class="label attribute-name" transform="translate(-25.5625, 52.125)" style=""><foreignObject width="89.578125" height="24"><div xmlns="http://www.w3.org/1999/xhtml" style="display: table-cell; white-space: nowrap; line-height: 1.5; max-width: 184px; text-align: start;"><span class="nodeLabel"><p>chunk_index</p></span></div></foreignObject></g><g class="label attribute-keys" transform="translate(165.84375, 52.125)" style=""><foreignObject width="0" height="0"><div xmlns="http://www.w3.org/1999/xhtml" style="display: table-cell; white-space: nowrap; line-height: 1.5; max-width: 100px; text-align: start;"><span class="nodeLabel"></span></div></foreignObject></g><g class="label attribute-comment" transform="translate(165.84375, 52.125)" style=""><foreignObject width="0" height="0"><div xmlns="http://www.w3.org/1999/xhtml" style="display: table-cell; white-space: nowrap; line-height: 1.5; max-width: 100px; text-align: start;"><span class="nodeLabel"></span></div></foreignObject></g><g class="label attribute-type" transform="translate(-140.84375, 94.875)" style=""><foreignObject width="38.59375" height="24"><div xmlns="http://www.w3.org/1999/xhtml" style="display: table-cell; white-space: nowrap; line-height: 1.5; max-width: 137px; text-align: start;"><span class="nodeLabel"><p>jsonb</p></span></div></foreignObject></g><g class="label attribute-name" transform="translate(-25.5625, 94.875)" style=""><foreignObject width="68.828125" height="24"><div xmlns="http://www.w3.org/1999/xhtml" style="display: table-cell; white-space: nowrap; line-height: 1.5; max-width: 160px; text-align: start;"><span class="nodeLabel"><p>metadata</p></span></div></foreignObject></g><g class="label attribute-keys" transform="translate(165.84375, 94.875)" style=""><foreignObject width="0" height="0"><div xmlns="http://www.w3.org/1999/xhtml" style="display: table-cell; white-space: nowrap; line-height: 1.5; max-width: 100px; text-align: start;"><span class="nodeLabel"></span></div></foreignObject></g><g class="label attribute-comment" transform="translate(165.84375, 94.875)" style=""><foreignObject width="0" height="0"><div xmlns="http://www.w3.org/1999/xhtml" style="display: table-cell; white-space: nowrap; line-height: 1.5; max-width: 100px; text-align: start;"><span class="nodeLabel"></span></div></foreignObject></g><g class="label attribute-type" transform="translate(-140.84375, 137.625)" style=""><foreignObject width="90.28125" height="24"><div xmlns="http://www.w3.org/1999/xhtml" style="display: table-cell; white-space: nowrap; line-height: 1.5; max-width: 180px; text-align: start;"><span class="nodeLabel"><p>timestamptz</p></span></div></foreignObject></g><g class="label attribute-name" transform="translate(-25.5625, 137.625)" style=""><foreignObject width="78.40625" height="24"><div xmlns="http://www.w3.org/1999/xhtml" style="display: table-cell; white-space: nowrap; line-height: 1.5; max-width: 166px; text-align: start;"><span class="nodeLabel"><p>created_at</p></span></div></foreignObject></g><g class="label attribute-keys" transform="translate(165.84375, 137.625)" style=""><foreignObject width="0" height="0"><div xmlns="http://www.w3.org/1999/xhtml" style="display: table-cell; white-space: nowrap; line-height: 1.5; max-width: 100px; text-align: start;"><span class="nodeLabel"></span></div></foreignObject></g><g class="label attribute-comment" transform="translate(165.84375, 137.625)" style=""><foreignObject width="0" height="0"><div xmlns="http://www.w3.org/1999/xhtml" style="display: table-cell; white-space: nowrap; line-height: 1.5; max-width: 100px; text-align: start;"><span class="nodeLabel"></span></div></foreignObject></g><g class="divider"><path d="M-153.34375 -128.25005 L-153.34375 -128.24995 L153.34375 -128.24995 L153.34375 -128.25005" stroke="none" stroke-width="0" fill="#ECECFF" fill-rule="evenodd"/><path d="M-153.34375 -128.25005 C-153.34375 -128.2500204079814, -153.34375 -128.2499908159628, -153.34375 -128.24995 M-153.34375 -128.25005 C-153.34375 -128.25001518804842, -153.34375 -128.24998037609686, -153.34375 -128.24995 M-153.34375 -128.24995 C-71.1846894429499 -128.24995, 10.974371114100194 -128.24995, 153.34375 -128.24995 M-153.34375 -128.24995 C-84.25243487061977 -128.24995, -15.161119741239531 -128.24995, 153.34375 -128.24995 M153.34375 -128.24995 C153.34375 -128.2499884408627, 153.34375 -128.25002688172535, 153.34375 -128.25005 M153.34375 -128.24995 C153.34375 -128.24998133735076, 153.34375 -128.2500126747015, 153.34375 -128.25005 M153.34375 -128.25005 C50.53255520069375 -128.25005, -52.2786395986125 -128.25005, -153.34375 -128.25005 M153.34375 -128.25005 C65.8772512292017 -128.25005, -21.589247541596592 -128.25005, -153.34375 -128.25005" stroke="#9370DB" stroke-width="1.3" fill="none" stroke-dasharray="0 0"/></g><g class="divider"><path d="M-38.06255 -128.25 L-38.06245 -128.25 L-38.06245 171 L-38.06255 171" stroke="none" stroke-width="0" fill="#ECECFF" fill-rule="evenodd"/><path d="M-38.06255 -128.25 C-38.06251096580161 -128.25, -38.062471931603206 -128.25, -38.06245 -128.25 M-38.06255 -128.25 C-38.062512456247276 -128.25, -38.062474912494544 -128.25, -38.06245 -128.25 M-38.06245 -128.25 C-38.06245 -41.40103798771787, -38.06245 45.44792402456426, -38.06245 171 M-38.06245 -128.25 C-38.06245 -40.729587811616014, -38.06245 46.79082437676797, -38.06245 171 M-38.06245 171 C-38.062472579920325 171, -38.06249515984065 171, -38.06255 171 M-38.06245 171 C-38.06247335287924 171, -38.06249670575848 171, -38.06255 171 M-38.06255 171 C-38.06255 56.310821603235595, -38.06255 -58.37835679352881, -38.06255 -128.25 M-38.06255 171 C-38.06255 110.31863404355904, -38.06255 49.63726808711809, -38.06255 -128.25" stroke="#9370DB" stroke-width="1.3" fill="none" stroke-dasharray="0 0"/></g><g class="divider"><path d="M-153.34375 -128.25005 L-153.34375 -128.24995 L153.34375 -128.24995 L153.34375 -128.25005" stroke="none" stroke-width="0" fill="#ECECFF" fill-rule="evenodd"/><path d="M-153.34375 -128.25005 C-153.34375 -128.2500294981511, -153.34375 -128.25000899630223, -153.34375 -128.24995 M-153.34375 -128.25005 C-153.34375 -128.25002277082294, -153.34375 -128.24999554164586, -153.34375 -128.24995 M-153.34375 -128.24995 C-37.725399768803044 -128.24995, 77.89295046239391 -128.24995, 153.34375 -128.24995 M-153.34375 -128.24995 C-34.6335469604617 -128.24995, 84.0766560790766 -128.24995, 153.34375 -128.24995 M153.34375 -128.24995 C153.34375 -128.2499771473168, 153.34375 -128.25000429463356, 153.34375 -128.25005 M153.34375 -128.24995 C153.34375 -128.24998151767662, 153.34375 -128.25001303535325, 153.34375 -128.25005 M153.34375 -128.25005 C89.9610235828325 -128.25005, 26.578297165665006 -128.25005, -153.34375 -128.25005 M153.34375 -128.25005 C84.19756621844557 -128.25005, 15.051382436891146 -128.25005, -153.34375 -128.25005" stroke="#9370DB" stroke-width="1.3" fill="none" stroke-dasharray="0 0"/></g></g><g class="node default" id="my-svg-entity-CONVERSATIONS-2" data-look="classic" transform="translate(581.3359375, 243.125)"><g class="outer-path" style=""><path d="M-111.1953125 -128.25 L111.1953125 -128.25 L111.1953125 128.25 L-111.1953125 128.25" stroke="none" stroke-width="0" fill="#ECECFF"/><path d="M-111.1953125 -128.25 C-38.15046540586252 -128.25, 34.89438168827496 -128.25, 111.1953125 -128.25 M-111.1953125 -128.25 C-59.88109709964153 -128.25, -8.566881699283059 -128.25, 111.1953125 -128.25 M111.1953125 -128.25 C111.1953125 -37.73780313133341, 111.1953125 52.774393737333185, 111.1953125 128.25 M111.1953125 -128.25 C111.1953125 -33.44146421480691, 111.1953125 61.36707157038617, 111.1953125 128.25 M111.1953125 128.25 C28.157539146506465 128.25, -54.88023420698707 128.25, -111.1953125 128.25 M111.1953125 128.25 C22.260693360794605 128.25, -66.67392577841079 128.25, -111.1953125 128.25 M-111.1953125 128.25 C-111.1953125 25.73147774514328, -111.1953125 -76.78704450971344, -111.1953125 -128.25 M-111.1953125 128.25 C-111.1953125 63.95023674997924, -111.1953125 -0.3495265000415202, -111.1953125 -128.25" stroke="#9370DB" stroke-width="1.3" fill="none" stroke-dasharray="0 0"/></g><g style="" class="row-rect-odd"><path d="M-111.1953125 -85.5 L111.1953125 -85.5 L111.1953125 -42.75 L-111.1953125 -42.75" stroke="none" stroke-width="0" fill="hsl(240, 100%, 100%)"/><path d="M-111.1953125 -85.5 C-60.24190820964274 -85.5, -9.288503919285475 -85.5, 111.1953125 -85.5 M-111.1953125 -85.5 C-51.93476724842188 -85.5, 7.325778003156245 -85.5, 111.1953125 -85.5 M111.1953125 -85.5 C111.1953125 -74.45259869598041, 111.1953125 -63.40519739196084, 111.1953125 -42.75 M111.1953125 -85.5 C111.1953125 -74.71101048934024, 111.1953125 -63.92202097868047, 111.1953125 -42.75 M111.1953125 -42.75 C51.98792901781938 -42.75, -7.219454464361235 -42.75, -111.1953125 -42.75 M111.1953125 -42.75 C28.498842722718393 -42.75, -54.19762705456321 -42.75, -111.1953125 -42.75 M-111.1953125 -42.75 C-111.1953125 -51.78426912741834, -111.1953125 -60.81853825483668, -111.1953125 -85.5 M-111.1953125 -42.75 C-111.1953125 -55.92599089743746, -111.1953125 -69.10198179487492, -111.1953125 -85.5" stroke="#9370DB" stroke-width="1.3" fill="none" stroke-dasharray="0 0"/></g><g style="" class="row-rect-even"><path d="M-111.1953125 -42.75 L111.1953125 -42.75 L111.1953125 0 L-111.1953125 0" stroke="none" stroke-width="0" fill="hsl(240, 100%, 97.2745098039%)"/><path d="M-111.1953125 -42.75 C-24.506245166328952 -42.75, 62.182822167342096 -42.75, 111.1953125 -42.75 M-111.1953125 -42.75 C-28.276845426453022 -42.75, 54.641621647093956 -42.75, 111.1953125 -42.75 M111.1953125 -42.75 C111.1953125 -27.3880378013428, 111.1953125 -12.026075602685601, 111.1953125 0 M111.1953125 -42.75 C111.1953125 -29.614781804370658, 111.1953125 -16.479563608741316, 111.1953125 0 M111.1953125 0 C40.08600452665553 0, -31.023303446688942 0, -111.1953125 0 M111.1953125 0 C31.30303359629754 0, -48.58924530740492 0, -111.1953125 0 M-111.1953125 0 C-111.1953125 -9.490730942440495, -111.1953125 -18.98146188488099, -111.1953125 -42.75 M-111.1953125 0 C-111.1953125 -13.01681581961354, -111.1953125 -26.03363163922708, -111.1953125 -42.75" stroke="#9370DB" stroke-width="1.3" fill="none" stroke-dasharray="0 0"/></g><g style="" class="row-rect-odd"><path d="M-111.1953125 0 L111.1953125 0 L111.1953125 42.75 L-111.1953125 42.75" stroke="none" stroke-width="0" fill="hsl(240, 100%, 100%)"/><path d="M-111.1953125 0 C-34.07924241581422 0, 43.03682766837156 0, 111.1953125 0 M-111.1953125 0 C-62.91530123162035 0, -14.635289963240695 0, 111.1953125 0 M111.1953125 0 C111.1953125 14.761152397871983, 111.1953125 29.522304795743967, 111.1953125 42.75 M111.1953125 0 C111.1953125 13.378855794786684, 111.1953125 26.75771158957337, 111.1953125 42.75 M111.1953125 42.75 C36.83162919951626 42.75, -37.532054100967486 42.75, -111.1953125 42.75 M111.1953125 42.75 C57.1093015556975 42.75, 3.023290611394998 42.75, -111.1953125 42.75 M-111.1953125 42.75 C-111.1953125 29.366891988883737, -111.1953125 15.983783977767477, -111.1953125 0 M-111.1953125 42.75 C-111.1953125 26.822034192571863, -111.1953125 10.894068385143726, -111.1953125 0" stroke="#9370DB" stroke-width="1.3" fill="none" stroke-dasharray="0 0"/></g><g style="" class="row-rect-even"><path d="M-111.1953125 42.75 L111.1953125 42.75 L111.1953125 85.5 L-111.1953125 85.5" stroke="none" stroke-width="0" fill="hsl(240, 100%, 97.2745098039%)"/><path d="M-111.1953125 42.75 C-33.14112904294976 42.75, 44.913054414100486 42.75, 111.1953125 42.75 M-111.1953125 42.75 C-24.474372417378547 42.75, 62.24656766524291 42.75, 111.1953125 42.75 M111.1953125 42.75 C111.1953125 55.28987907176656, 111.1953125 67.82975814353313, 111.1953125 85.5 M111.1953125 42.75 C111.1953125 52.94386958812409, 111.1953125 63.137739176248175, 111.1953125 85.5 M111.1953125 85.5 C24.132375617074885 85.5, -62.93056126585023 85.5, -111.1953125 85.5 M111.1953125 85.5 C51.90724125565901 85.5, -7.380829988681981 85.5, -111.1953125 85.5 M-111.1953125 85.5 C-111.1953125 76.80714877354465, -111.1953125 68.11429754708931, -111.1953125 42.75 M-111.1953125 85.5 C-111.1953125 70.30862898371285, -111.1953125 55.1172579674257, -111.1953125 42.75" stroke="#9370DB" stroke-width="1.3" fill="none" stroke-dasharray="0 0"/></g><g style="" class="row-rect-odd"><path d="M-111.1953125 85.5 L111.1953125 85.5 L111.1953125 128.25 L-111.1953125 128.25" stroke="none" stroke-width="0" fill="hsl(240, 100%, 100%)"/><path d="M-111.1953125 85.5 C-46.79879506013404 85.5, 17.59772237973192 85.5, 111.1953125 85.5 M-111.1953125 85.5 C-63.04265821959503 85.5, -14.890003939190066 85.5, 111.1953125 85.5 M111.1953125 85.5 C111.1953125 97.07308461345217, 111.1953125 108.64616922690433, 111.1953125 128.25 M111.1953125 85.5 C111.1953125 98.84466512701404, 111.1953125 112.18933025402808, 111.1953125 128.25 M111.1953125 128.25 C47.43069237824353 128.25, -16.333927743512945 128.25, -111.1953125 128.25 M111.1953125 128.25 C60.312800722237256 128.25, 9.430288944474512 128.25, -111.1953125 128.25 M-111.1953125 128.25 C-111.1953125 113.03106049769676, -111.1953125 97.81212099539351, -111.1953125 85.5 M-111.1953125 128.25 C-111.1953125 117.08908354252492, -111.1953125 105.92816708504984, -111.1953125 85.5" stroke="#9370DB" stroke-width="1.3" fill="none" stroke-dasharray="0 0"/></g><g class="label name" transform="translate(-57.9296875, -118.875)" style=""><foreignObject width="115.859375" height="24"><div xmlns="http://www.w3.org/1999/xhtml" style="display: table-cell; white-space: nowrap; line-height: 1.5; max-width: 232px; text-align: start;"><span class="nodeLabel"><p>CONVERSATIONS</p></span></div></foreignObject></g><g class="label attribute-type" transform="translate(-98.6953125, -76.125)" style=""><foreignObject width="30.96875" height="24"><div xmlns="http://www.w3.org/1999/xhtml" style="display: table-cell; white-space: nowrap; line-height: 1.5; max-width: 130px; text-align: start;"><span class="nodeLabel"><p>uuid</p></span></div></foreignObject></g><g class="label attribute-name" transform="translate(16.5859375, -76.125)" style=""><foreignObject width="13.484375" height="24"><div xmlns="http://www.w3.org/1999/xhtml" style="display: table-cell; white-space: nowrap; line-height: 1.5; max-width: 113px; text-align: start;"><span class="nodeLabel"><p>id</p></span></div></foreignObject></g><g class="label attribute-keys" transform="translate(123.6953125, -76.125)" style=""><foreignObject width="0" height="0"><div xmlns="http://www.w3.org/1999/xhtml" style="display: table-cell; white-space: nowrap; line-height: 1.5; max-width: 100px; text-align: start;"><span class="nodeLabel"></span></div></foreignObject></g><g class="label attribute-comment" transform="translate(123.6953125, -76.125)" style=""><foreignObject width="0" height="0"><div xmlns="http://www.w3.org/1999/xhtml" style="display: table-cell; white-space: nowrap; line-height: 1.5; max-width: 100px; text-align: start;"><span class="nodeLabel"></span></div></foreignObject></g><g class="label attribute-type" transform="translate(-98.6953125, -33.375)" style=""><foreignObject width="29.4375" height="24"><div xmlns="http://www.w3.org/1999/xhtml" style="display: table-cell; white-space: nowrap; line-height: 1.5; max-width: 126px; text-align: start;"><span class="nodeLabel"><p>text</p></span></div></foreignObject></g><g class="label attribute-name" transform="translate(16.5859375, -33.375)" style=""><foreignObject width="30.703125" height="24"><div xmlns="http://www.w3.org/1999/xhtml" style="display: table-cell; white-space: nowrap; line-height: 1.5; max-width: 126px; text-align: start;"><span class="nodeLabel"><p>title</p></span></div></foreignObject></g><g class="label attribute-keys" transform="translate(123.6953125, -33.375)" style=""><foreignObject width="0" height="0"><div xmlns="http://www.w3.org/1999/xhtml" style="display: table-cell; white-space: nowrap; line-height: 1.5; max-width: 100px; text-align: start;"><span class="nodeLabel"></span></div></foreignObject></g><g class="label attribute-comment" transform="translate(123.6953125, -33.375)" style=""><foreignObject width="0" height="0"><div xmlns="http://www.w3.org/1999/xhtml" style="display: table-cell; white-space: nowrap; line-height: 1.5; max-width: 100px; text-align: start;"><span class="nodeLabel"></span></div></foreignObject></g><g class="label attribute-type" transform="translate(-98.6953125, 9.375)" style=""><foreignObject width="38.59375" height="24"><div xmlns="http://www.w3.org/1999/xhtml" style="display: table-cell; white-space: nowrap; line-height: 1.5; max-width: 137px; text-align: start;"><span class="nodeLabel"><p>jsonb</p></span></div></foreignObject></g><g class="label attribute-name" transform="translate(16.5859375, 9.375)" style=""><foreignObject width="68.828125" height="24"><div xmlns="http://www.w3.org/1999/xhtml" style="display: table-cell; white-space: nowrap; line-height: 1.5; max-width: 160px; text-align: start;"><span class="nodeLabel"><p>metadata</p></span></div></foreignObject></g><g class="label attribute-keys" transform="translate(123.6953125, 9.375)" style=""><foreignObject width="0" height="0"><div xmlns="http://www.w3.org/1999/xhtml" style="display: table-cell; white-space: nowrap; line-height: 1.5; max-width: 100px; text-align: start;"><span class="nodeLabel"></span></div></foreignObject></g><g class="label attribute-comment" transform="translate(123.6953125, 9.375)" style=""><foreignObject width="0" height="0"><div xmlns="http://www.w3.org/1999/xhtml" style="display: table-cell; white-space: nowrap; line-height: 1.5; max-width: 100px; text-align: start;"><span class="nodeLabel"></span></div></foreignObject></g><g class="label attribute-type" transform="translate(-98.6953125, 52.125)" style=""><foreignObject width="90.28125" height="24"><div xmlns="http://www.w3.org/1999/xhtml" style="display: table-cell; white-space: nowrap; line-height: 1.5; max-width: 180px; text-align: start;"><span class="nodeLabel"><p>timestamptz</p></span></div></foreignObject></g><g class="label attribute-name" transform="translate(16.5859375, 52.125)" style=""><foreignObject width="78.40625" height="24"><div xmlns="http://www.w3.org/1999/xhtml" style="display: table-cell; white-space: nowrap; line-height: 1.5; max-width: 166px; text-align: start;"><span class="nodeLabel"><p>created_at</p></span></div></foreignObject></g><g class="label attribute-keys" transform="translate(123.6953125, 52.125)" style=""><foreignObject width="0" height="0"><div xmlns="http://www.w3.org/1999/xhtml" style="display: table-cell; white-space: nowrap; line-height: 1.5; max-width: 100px; text-align: start;"><span class="nodeLabel"></span></div></foreignObject></g><g class="label attribute-comment" transform="translate(123.6953125, 52.125)" style=""><foreignObject width="0" height="0"><div xmlns="http://www.w3.org/1999/xhtml" style="display: table-cell; white-space: nowrap; line-height: 1.5; max-width: 100px; text-align: start;"><span class="nodeLabel"></span></div></foreignObject></g><g class="label attribute-type" transform="translate(-98.6953125, 94.875)" style=""><foreignObject width="90.28125" height="24"><div xmlns="http://www.w3.org/1999/xhtml" style="display: table-cell; white-space: nowrap; line-height: 1.5; max-width: 180px; text-align: start;"><span class="nodeLabel"><p>timestamptz</p></span></div></foreignObject></g><g class="label attribute-name" transform="translate(16.5859375, 94.875)" style=""><foreignObject width="82.109375" height="24"><div xmlns="http://www.w3.org/1999/xhtml" style="display: table-cell; white-space: nowrap; line-height: 1.5; max-width: 172px; text-align: start;"><span class="nodeLabel"><p>updated_at</p></span></div></foreignObject></g><g class="label attribute-keys" transform="translate(123.6953125, 94.875)" style=""><foreignObject width="0" height="0"><div xmlns="http://www.w3.org/1999/xhtml" style="display: table-cell; white-space: nowrap; line-height: 1.5; max-width: 100px; text-align: start;"><span class="nodeLabel"></span></div></foreignObject></g><g class="label attribute-comment" transform="translate(123.6953125, 94.875)" style=""><foreignObject width="0" height="0"><div xmlns="http://www.w3.org/1999/xhtml" style="display: table-cell; white-space: nowrap; line-height: 1.5; max-width: 100px; text-align: start;"><span class="nodeLabel"></span></div></foreignObject></g><g class="divider"><path d="M-111.1953125 -85.50005 L-111.1953125 -85.49995 L111.1953125 -85.49995 L111.1953125 -85.50005" stroke="none" stroke-width="0" fill="#ECECFF" fill-rule="evenodd"/><path d="M-111.1953125 -85.50005 C-111.1953125 -85.50001378928249, -111.1953125 -85.499977578565, -111.1953125 -85.49995 M-111.1953125 -85.50005 C-111.1953125 -85.50002474933727, -111.1953125 -85.49999949867455, -111.1953125 -85.49995 M-111.1953125 -85.49995 C-38.48330890514909 -85.49995, 34.228694689701825 -85.49995, 111.1953125 -85.49995 M-111.1953125 -85.49995 C-51.60492078996286 -85.49995, 7.9854709200742775 -85.49995, 111.1953125 -85.49995 M111.1953125 -85.49995 C111.1953125 -85.49998291579296, 111.1953125 -85.50001583158593, 111.1953125 -85.50005 M111.1953125 -85.49995 C111.1953125 -85.49998336566297, 111.1953125 -85.50001673132596, 111.1953125 -85.50005 M111.1953125 -85.50005 C56.11377429688122 -85.50005, 1.0322360937624353 -85.50005, -111.1953125 -85.50005 M111.1953125 -85.50005 C27.38054254294896 -85.50005, -56.43422741410208 -85.50005, -111.1953125 -85.50005" stroke="#9370DB" stroke-width="1.3" fill="none" stroke-dasharray="0 0"/></g><g class="divider"><path d="M4.0858875 -85.5 L4.0859875 -85.5 L4.0859875 128.25 L4.0858875 128.25" stroke="none" stroke-width="0" fill="#ECECFF" fill-rule="evenodd"/><path d="M4.0858875 -85.5 C4.0859214486458955 -85.5, 4.085955397291791 -85.5, 4.0859875 -85.5 M4.0858875 -85.5 C4.085914468813789 -85.5, 4.085941437627579 -85.5, 4.0859875 -85.5 M4.0859875 -85.5 C4.0859875 -1.2666426065342336, 4.0859875 82.96671478693153, 4.0859875 128.25 M4.0859875 -85.5 C4.0859875 -27.51662132401927, 4.0859875 30.466757351961462, 4.0859875 128.25 M4.0859875 128.25 C4.0859533629597795 128.25, 4.085919225919559 128.25, 4.0858875 128.25 M4.0859875 128.25 C4.085967086627503 128.25, 4.085946673255005 128.25, 4.0858875 128.25 M4.0858875 128.25 C4.0858875 46.457196013489266, 4.0858875 -35.33560797302147, 4.0858875 -85.5 M4.0858875 128.25 C4.0858875 63.7461072089085, 4.0858875 -0.7577855821830042, 4.0858875 -85.5" stroke="#9370DB" stroke-width="1.3" fill="none" stroke-dasharray="0 0"/></g><g class="divider"><path d="M-111.1953125 -85.50005 L-111.1953125 -85.49995 L111.1953125 -85.49995 L111.1953125 -85.50005" stroke="none" stroke-width="0" fill="#ECECFF" fill-rule="evenodd"/><path d="M-111.1953125 -85.50005 C-111.1953125 -85.50001944482528, -111.1953125 -85.49998888965058, -111.1953125 -85.49995 M-111.1953125 -85.50005 C-111.1953125 -85.50001014145964, -111.1953125 -85.49997028291926, -111.1953125 -85.49995 M-111.1953125 -85.49995 C-60.55515603770833 -85.49995, -9.914999575416658 -85.49995, 111.1953125 -85.49995 M-111.1953125 -85.49995 C-52.373233999787914 -85.49995, 6.448844500424173 -85.49995, 111.1953125 -85.49995 M111.1953125 -85.49995 C111.1953125 -85.49997997675628, 111.1953125 -85.50000995351256, 111.1953125 -85.50005 M111.1953125 -85.49995 C111.1953125 -85.49997925535315, 111.1953125 -85.50000851070632, 111.1953125 -85.50005 M111.1953125 -85.50005 C46.29928364025858 -85.50005, -18.59674521948284 -85.50005, -111.1953125 -85.50005 M111.1953125 -85.50005 C51.697338652119015 -85.50005, -7.80063519576197 -85.50005, -111.1953125 -85.50005" stroke="#9370DB" stroke-width="1.3" fill="none" stroke-dasharray="0 0"/></g></g><g class="node default" id="my-svg-entity-MESSAGES-3" data-look="classic" transform="translate(581.3359375, 750.25)"><g class="outer-path" style=""><path d="M-126.6484375 -171 L126.6484375 -171 L126.6484375 171 L-126.6484375 171" stroke="none" stroke-width="0" fill="#ECECFF"/><path d="M-126.6484375 -171 C-57.84658991144566 -171, 10.955257677108676 -171, 126.6484375 -171 M-126.6484375 -171 C-29.956305185906118 -171, 66.73582712818776 -171, 126.6484375 -171 M126.6484375 -171 C126.6484375 -55.01275036785135, 126.6484375 60.97449926429729, 126.6484375 171 M126.6484375 -171 C126.6484375 -101.76868507861688, 126.6484375 -32.53737015723377, 126.6484375 171 M126.6484375 171 C30.077984651644286 171, -66.49246819671143 171, -126.6484375 171 M126.6484375 171 C57.609900097442704 171, -11.428637305114592 171, -126.6484375 171 M-126.6484375 171 C-126.6484375 51.015909913655534, -126.6484375 -68.96818017268893, -126.6484375 -171 M-126.6484375 171 C-126.6484375 66.02564294056103, -126.6484375 -38.948714118877945, -126.6484375 -171" stroke="#9370DB" stroke-width="1.3" fill="none" stroke-dasharray="0 0"/></g><g style="" class="row-rect-odd"><path d="M-126.6484375 -128.25 L126.6484375 -128.25 L126.6484375 -85.5 L-126.6484375 -85.5" stroke="none" stroke-width="0" fill="hsl(240, 100%, 100%)"/><path d="M-126.6484375 -128.25 C-56.01195132256723 -128.25, 14.624534854865544 -128.25, 126.6484375 -128.25 M-126.6484375 -128.25 C-25.687894799151096 -128.25, 75.27264790169781 -128.25, 126.6484375 -128.25 M126.6484375 -128.25 C126.6484375 -117.68948504813014, 126.6484375 -107.12897009626028, 126.6484375 -85.5 M126.6484375 -128.25 C126.6484375 -118.39925419876138, 126.6484375 -108.54850839752277, 126.6484375 -85.5 M126.6484375 -85.5 C41.562840643877195 -85.5, -43.52275621224561 -85.5, -126.6484375 -85.5 M126.6484375 -85.5 C71.47727496310955 -85.5, 16.306112426219087 -85.5, -126.6484375 -85.5 M-126.6484375 -85.5 C-126.6484375 -98.3184234399477, -126.6484375 -111.13684687989539, -126.6484375 -128.25 M-126.6484375 -85.5 C-126.6484375 -102.07522294508315, -126.6484375 -118.65044589016631, -126.6484375 -128.25" stroke="#9370DB" stroke-width="1.3" fill="none" stroke-dasharray="0 0"/></g><g style="" class="row-rect-even"><path d="M-126.6484375 -85.5 L126.6484375 -85.5 L126.6484375 -42.75 L-126.6484375 -42.75" stroke="none" stroke-width="0" fill="hsl(240, 100%, 97.2745098039%)"/><path d="M-126.6484375 -85.5 C-29.986432725131465 -85.5, 66.67557204973707 -85.5, 126.6484375 -85.5 M-126.6484375 -85.5 C-47.40527145611799 -85.5, 31.837894587764026 -85.5, 126.6484375 -85.5 M126.6484375 -85.5 C126.6484375 -69.68023200296177, 126.6484375 -53.86046400592356, 126.6484375 -42.75 M126.6484375 -85.5 C126.6484375 -73.6351698271452, 126.6484375 -61.770339654290396, 126.6484375 -42.75 M126.6484375 -42.75 C54.721736588240844 -42.75, -17.20496432351831 -42.75, -126.6484375 -42.75 M126.6484375 -42.75 C58.597836270257474 -42.75, -9.452764959485052 -42.75, -126.6484375 -42.75 M-126.6484375 -42.75 C-126.6484375 -54.587617679355326, -126.6484375 -66.42523535871065, -126.6484375 -85.5 M-126.6484375 -42.75 C-126.6484375 -52.30348055843514, -126.6484375 -61.85696111687028, -126.6484375 -85.5" stroke="#9370DB" stroke-width="1.3" fill="none" stroke-dasharray="0 0"/></g><g style="" class="row-rect-odd"><path d="M-126.6484375 -42.75 L126.6484375 -42.75 L126.6484375 0 L-126.6484375 0" stroke="none" stroke-width="0" fill="hsl(240, 100%, 100%)"/><path d="M-126.6484375 -42.75 C-35.41890068013198 -42.75, 55.81063613973603 -42.75, 126.6484375 -42.75 M-126.6484375 -42.75 C-73.3789267567305 -42.75, -20.109416013460987 -42.75, 126.6484375 -42.75 M126.6484375 -42.75 C126.6484375 -31.549002565769605, 126.6484375 -20.348005131539207, 126.6484375 0 M126.6484375 -42.75 C126.6484375 -29.987100569061894, 126.6484375 -17.22420113812379, 126.6484375 0 M126.6484375 0 C48.46494349130131 0, -29.718550517397375 0, -126.6484375 0 M126.6484375 0 C31.444079776605818 0, -63.760277946788364 0, -126.6484375 0 M-126.6484375 0 C-126.6484375 -9.510301764341815, -126.6484375 -19.02060352868363, -126.6484375 -42.75 M-126.6484375 0 C-126.6484375 -9.364606852009487, -126.6484375 -18.729213704018974, -126.6484375 -42.75" stroke="#9370DB" stroke-width="1.3" fill="none" stroke-dasharray="0 0"/></g><g style="" class="row-rect-even"><path d="M-126.6484375 0 L126.6484375 0 L126.6484375 42.75 L-126.6484375 42.75" stroke="none" stroke-width="0" fill="hsl(240, 100%, 97.2745098039%)"/><path d="M-126.6484375 0 C-59.90524588896663 0, 6.837945722066735 0, 126.6484375 0 M-126.6484375 0 C-30.667439145342 0, 65.313559209316 0, 126.6484375 0 M126.6484375 0 C126.6484375 13.096869374962337, 126.6484375 26.193738749924673, 126.6484375 42.75 M126.6484375 0 C126.6484375 11.87507370603425, 126.6484375 23.7501474120685, 126.6484375 42.75 M126.6484375 42.75 C44.01645089139507 42.75, -38.615535717209866 42.75, -126.6484375 42.75 M126.6484375 42.75 C69.8898605125276 42.75, 13.131283525055224 42.75, -126.6484375 42.75 M-126.6484375 42.75 C-126.6484375 26.112000018448935, -126.6484375 9.47400003689787, -126.6484375 0 M-126.6484375 42.75 C-126.6484375 31.975201484849954, -126.6484375 21.20040296969991, -126.6484375 0" stroke="#9370DB" stroke-width="1.3" fill="none" stroke-dasharray="0 0"/></g><g style="" class="row-rect-odd"><path d="M-126.6484375 42.75 L126.6484375 42.75 L126.6484375 85.5 L-126.6484375 85.5" stroke="none" stroke-width="0" fill="hsl(240, 100%, 100%)"/><path d="M-126.6484375 42.75 C-57.194505303936495 42.75, 12.25942689212701 42.75, 126.6484375 42.75 M-126.6484375 42.75 C-41.181902133401564 42.75, 44.28463323319687 42.75, 126.6484375 42.75 M126.6484375 42.75 C126.6484375 58.99041542817193, 126.6484375 75.23083085634386, 126.6484375 85.5 M126.6484375 42.75 C126.6484375 56.91594720619224, 126.6484375 71.08189441238449, 126.6484375 85.5 M126.6484375 85.5 C51.7803732085294 85.5, -23.087691082941205 85.5, -126.6484375 85.5 M126.6484375 85.5 C40.0789048583035 85.5, -46.490627783392995 85.5, -126.6484375 85.5 M-126.6484375 85.5 C-126.6484375 71.13352002748742, -126.6484375 56.76704005497483, -126.6484375 42.75 M-126.6484375 85.5 C-126.6484375 70.56315232109863, -126.6484375 55.626304642197255, -126.6484375 42.75" stroke="#9370DB" stroke-width="1.3" fill="none" stroke-dasharray="0 0"/></g><g style="" class="row-rect-even"><path d="M-126.6484375 85.5 L126.6484375 85.5 L126.6484375 128.25 L-126.6484375 128.25" stroke="none" stroke-width="0" fill="hsl(240, 100%, 97.2745098039%)"/><path d="M-126.6484375 85.5 C-41.32726936996936 85.5, 43.993898760061285 85.5, 126.6484375 85.5 M-126.6484375 85.5 C-66.03624457799891 85.5, -5.424051655997829 85.5, 126.6484375 85.5 M126.6484375 85.5 C126.6484375 101.75099265606269, 126.6484375 118.00198531212537, 126.6484375 128.25 M126.6484375 85.5 C126.6484375 95.39146292654374, 126.6484375 105.28292585308748, 126.6484375 128.25 M126.6484375 128.25 C58.936469519924785 128.25, -8.77549846015043 128.25, -126.6484375 128.25 M126.6484375 128.25 C57.51385121081576 128.25, -11.620735078368483 128.25, -126.6484375 128.25 M-126.6484375 128.25 C-126.6484375 118.90025754633494, -126.6484375 109.55051509266988, -126.6484375 85.5 M-126.6484375 128.25 C-126.6484375 117.93605074085501, -126.6484375 107.62210148171002, -126.6484375 85.5" stroke="#9370DB" stroke-width="1.3" fill="none" stroke-dasharray="0 0"/></g><g style="" class="row-rect-odd"><path d="M-126.6484375 128.25 L126.6484375 128.25 L126.6484375 171 L-126.6484375 171" stroke="none" stroke-width="0" fill="hsl(240, 100%, 100%)"/><path d="M-126.6484375 128.25 C-55.502373115468345 128.25, 15.64369126906331 128.25, 126.6484375 128.25 M-126.6484375 128.25 C-75.19927123632439 128.25, -23.75010497264877 128.25, 126.6484375 128.25 M126.6484375 128.25 C126.6484375 140.3026639365586, 126.6484375 152.35532787311715, 126.6484375 171 M126.6484375 128.25 C126.6484375 140.13497014793836, 126.6484375 152.0199402958767, 126.6484375 171 M126.6484375 171 C46.90817867357222 171, -32.83208015285555 171, -126.6484375 171 M126.6484375 171 C64.01811532364049 171, 1.3877931472809735 171, -126.6484375 171 M-126.6484375 171 C-126.6484375 162.26804444090675, -126.6484375 153.5360888818135, -126.6484375 128.25 M-126.6484375 171 C-126.6484375 157.63734926205797, -126.6484375 144.27469852411593, -126.6484375 128.25" stroke="#9370DB" stroke-width="1.3" fill="none" stroke-dasharray="0 0"/></g><g class="label name" transform="translate(-35.921875, -161.625)" style=""><foreignObject width="71.84375" height="24"><div xmlns="http://www.w3.org/1999/xhtml" style="display: table-cell; white-space: nowrap; line-height: 1.5; max-width: 185px; text-align: start;"><span class="nodeLabel"><p>MESSAGES</p></span></div></foreignObject></g><g class="label attribute-type" transform="translate(-114.1484375, -118.875)" style=""><foreignObject width="30.96875" height="24"><div xmlns="http://www.w3.org/1999/xhtml" style="display: table-cell; white-space: nowrap; line-height: 1.5; max-width: 130px; text-align: start;"><span class="nodeLabel"><p>uuid</p></span></div></foreignObject></g><g class="label attribute-name" transform="translate(1.1328125, -118.875)" style=""><foreignObject width="13.484375" height="24"><div xmlns="http://www.w3.org/1999/xhtml" style="display: table-cell; white-space: nowrap; line-height: 1.5; max-width: 113px; text-align: start;"><span class="nodeLabel"><p>id</p></span></div></foreignObject></g><g class="label attribute-keys" transform="translate(139.1484375, -118.875)" style=""><foreignObject width="0" height="0"><div xmlns="http://www.w3.org/1999/xhtml" style="display: table-cell; white-space: nowrap; line-height: 1.5; max-width: 100px; text-align: start;"><span class="nodeLabel"></span></div></foreignObject></g><g class="label attribute-comment" transform="translate(139.1484375, -118.875)" style=""><foreignObject width="0" height="0"><div xmlns="http://www.w3.org/1999/xhtml" style="display: table-cell; white-space: nowrap; line-height: 1.5; max-width: 100px; text-align: start;"><span class="nodeLabel"></span></div></foreignObject></g><g class="label attribute-type" transform="translate(-114.1484375, -76.125)" style=""><foreignObject width="30.96875" height="24"><div xmlns="http://www.w3.org/1999/xhtml" style="display: table-cell; white-space: nowrap; line-height: 1.5; max-width: 130px; text-align: start;"><span class="nodeLabel"><p>uuid</p></span></div></foreignObject></g><g class="label attribute-name" transform="translate(1.1328125, -76.125)" style=""><foreignObject width="113.015625" height="24"><div xmlns="http://www.w3.org/1999/xhtml" style="display: table-cell; white-space: nowrap; line-height: 1.5; max-width: 203px; text-align: start;"><span class="nodeLabel"><p>conversation_id</p></span></div></foreignObject></g><g class="label attribute-keys" transform="translate(139.1484375, -76.125)" style=""><foreignObject width="0" height="0"><div xmlns="http://www.w3.org/1999/xhtml" style="display: table-cell; white-space: nowrap; line-height: 1.5; max-width: 100px; text-align: start;"><span class="nodeLabel"></span></div></foreignObject></g><g class="label attribute-comment" transform="translate(139.1484375, -76.125)" style=""><foreignObject width="0" height="0"><div xmlns="http://www.w3.org/1999/xhtml" style="display: table-cell; white-space: nowrap; line-height: 1.5; max-width: 100px; text-align: start;"><span class="nodeLabel"></span></div></foreignObject></g><g class="label attribute-type" transform="translate(-114.1484375, -33.375)" style=""><foreignObject width="29.4375" height="24"><div xmlns="http://www.w3.org/1999/xhtml" style="display: table-cell; white-space: nowrap; line-height: 1.5; max-width: 126px; text-align: start;"><span class="nodeLabel"><p>text</p></span></div></foreignObject></g><g class="label attribute-name" transform="translate(1.1328125, -33.375)" style=""><foreignObject width="28.25" height="24"><div xmlns="http://www.w3.org/1999/xhtml" style="display: table-cell; white-space: nowrap; line-height: 1.5; max-width: 126px; text-align: start;"><span class="nodeLabel"><p>role</p></span></div></foreignObject></g><g class="label attribute-keys" transform="translate(139.1484375, -33.375)" style=""><foreignObject width="0" height="0"><div xmlns="http://www.w3.org/1999/xhtml" style="display: table-cell; white-space: nowrap; line-height: 1.5; max-width: 100px; text-align: start;"><span class="nodeLabel"></span></div></foreignObject></g><g class="label attribute-comment" transform="translate(139.1484375, -33.375)" style=""><foreignObject width="0" height="0"><div xmlns="http://www.w3.org/1999/xhtml" style="display: table-cell; white-space: nowrap; line-height: 1.5; max-width: 100px; text-align: start;"><span class="nodeLabel"></span></div></foreignObject></g><g class="label attribute-type" transform="translate(-114.1484375, 9.375)" style=""><foreignObject width="29.4375" height="24"><div xmlns="http://www.w3.org/1999/xhtml" style="display: table-cell; white-space: nowrap; line-height: 1.5; max-width: 126px; text-align: start;"><span class="nodeLabel"><p>text</p></span></div></foreignObject></g><g class="label attribute-name" transform="translate(1.1328125, 9.375)" style=""><foreignObject width="55.40625" height="24"><div xmlns="http://www.w3.org/1999/xhtml" style="display: table-cell; white-space: nowrap; line-height: 1.5; max-width: 148px; text-align: start;"><span class="nodeLabel"><p>content</p></span></div></foreignObject></g><g class="label attribute-keys" transform="translate(139.1484375, 9.375)" style=""><foreignObject width="0" height="0"><div xmlns="http://www.w3.org/1999/xhtml" style="display: table-cell; white-space: nowrap; line-height: 1.5; max-width: 100px; text-align: start;"><span class="nodeLabel"></span></div></foreignObject></g><g class="label attribute-comment" transform="translate(139.1484375, 9.375)" style=""><foreignObject width="0" height="0"><div xmlns="http://www.w3.org/1999/xhtml" style="display: table-cell; white-space: nowrap; line-height: 1.5; max-width: 100px; text-align: start;"><span class="nodeLabel"></span></div></foreignObject></g><g class="label attribute-type" transform="translate(-114.1484375, 52.125)" style=""><foreignObject width="19.65625" height="24"><div xmlns="http://www.w3.org/1999/xhtml" style="display: table-cell; white-space: nowrap; line-height: 1.5; max-width: 117px; text-align: start;"><span class="nodeLabel"><p>int</p></span></div></foreignObject></g><g class="label attribute-name" transform="translate(1.1328125, 52.125)" style=""><foreignObject width="66.984375" height="24"><div xmlns="http://www.w3.org/1999/xhtml" style="display: table-cell; white-space: nowrap; line-height: 1.5; max-width: 159px; text-align: start;"><span class="nodeLabel"><p>sequence</p></span></div></foreignObject></g><g class="label attribute-keys" transform="translate(139.1484375, 52.125)" style=""><foreignObject width="0" height="0"><div xmlns="http://www.w3.org/1999/xhtml" style="display: table-cell; white-space: nowrap; line-height: 1.5; max-width: 100px; text-align: start;"><span class="nodeLabel"></span></div></foreignObject></g><g class="label attribute-comment" transform="translate(139.1484375, 52.125)" style=""><foreignObject width="0" height="0"><div xmlns="http://www.w3.org/1999/xhtml" style="display: table-cell; white-space: nowrap; line-height: 1.5; max-width: 100px; text-align: start;"><span class="nodeLabel"></span></div></foreignObject></g><g class="label attribute-type" transform="translate(-114.1484375, 94.875)" style=""><foreignObject width="38.59375" height="24"><div xmlns="http://www.w3.org/1999/xhtml" style="display: table-cell; white-space: nowrap; line-height: 1.5; max-width: 137px; text-align: start;"><span class="nodeLabel"><p>jsonb</p></span></div></foreignObject></g><g class="label attribute-name" transform="translate(1.1328125, 94.875)" style=""><foreignObject width="68.828125" height="24"><div xmlns="http://www.w3.org/1999/xhtml" style="display: table-cell; white-space: nowrap; line-height: 1.5; max-width: 160px; text-align: start;"><span class="nodeLabel"><p>metadata</p></span></div></foreignObject></g><g class="label attribute-keys" transform="translate(139.1484375, 94.875)" style=""><foreignObject width="0" height="0"><div xmlns="http://www.w3.org/1999/xhtml" style="display: table-cell; white-space: nowrap; line-height: 1.5; max-width: 100px; text-align: start;"><span class="nodeLabel"></span></div></foreignObject></g><g class="label attribute-comment" transform="translate(139.1484375, 94.875)" style=""><foreignObject width="0" height="0"><div xmlns="http://www.w3.org/1999/xhtml" style="display: table-cell; white-space: nowrap; line-height: 1.5; max-width: 100px; text-align: start;"><span class="nodeLabel"></span></div></foreignObject></g><g class="label attribute-type" transform="translate(-114.1484375, 137.625)" style=""><foreignObject width="90.28125" height="24"><div xmlns="http://www.w3.org/1999/xhtml" style="display: table-cell; white-space: nowrap; line-height: 1.5; max-width: 180px; text-align: start;"><span class="nodeLabel"><p>timestamptz</p></span></div></foreignObject></g><g class="label attribute-name" transform="translate(1.1328125, 137.625)" style=""><foreignObject width="78.40625" height="24"><div xmlns="http://www.w3.org/1999/xhtml" style="display: table-cell; white-space: nowrap; line-height: 1.5; max-width: 166px; text-align: start;"><span class="nodeLabel"><p>created_at</p></span></div></foreignObject></g><g class="label attribute-keys" transform="translate(139.1484375, 137.625)" style=""><foreignObject width="0" height="0"><div xmlns="http://www.w3.org/1999/xhtml" style="display: table-cell; white-space: nowrap; line-height: 1.5; max-width: 100px; text-align: start;"><span class="nodeLabel"></span></div></foreignObject></g><g class="label attribute-comment" transform="translate(139.1484375, 137.625)" style=""><foreignObject width="0" height="0"><div xmlns="http://www.w3.org/1999/xhtml" style="display: table-cell; white-space: nowrap; line-height: 1.5; max-width: 100px; text-align: start;"><span class="nodeLabel"></span></div></foreignObject></g><g class="divider"><path d="M-126.6484375 -128.25005 L-126.6484375 -128.24995 L126.6484375 -128.24995 L126.6484375 -128.25005" stroke="none" stroke-width="0" fill="#ECECFF" fill-rule="evenodd"/><path d="M-126.6484375 -128.25005 C-126.6484375 -128.25002680095486, -126.6484375 -128.25000360190975, -126.6484375 -128.24995 M-126.6484375 -128.25005 C-126.6484375 -128.2500220218555, -126.6484375 -128.249994043711, -126.6484375 -128.24995 M-126.6484375 -128.24995 C-27.151059536445757 -128.24995, 72.34631842710849 -128.24995, 126.6484375 -128.24995 M-126.6484375 -128.24995 C-35.1682112682101 -128.24995, 56.3120149635798 -128.24995, 126.6484375 -128.24995 M126.6484375 -128.24995 C126.6484375 -128.2499878864194, 126.6484375 -128.25002577283882, 126.6484375 -128.25005 M126.6484375 -128.24995 C126.6484375 -128.24997967955994, 126.6484375 -128.25000935911984, 126.6484375 -128.25005 M126.6484375 -128.25005 C35.680182985948264 -128.25005, -55.28807152810347 -128.25005, -126.6484375 -128.25005 M126.6484375 -128.25005 C38.92283587325187 -128.25005, -48.80276575349626 -128.25005, -126.6484375 -128.25005" stroke="#9370DB" stroke-width="1.3" fill="none" stroke-dasharray="0 0"/></g><g class="divider"><path d="M-11.3672375 -128.25 L-11.3671375 -128.25 L-11.3671375 171 L-11.3672375 171" stroke="none" stroke-width="0" fill="#ECECFF" fill-rule="evenodd"/><path d="M-11.3672375 -128.25 C-11.367208363696525 -128.25, -11.36717922739305 -128.25, -11.3671375 -128.25 M-11.3672375 -128.25 C-11.367215103035786 -128.25, -11.367192706071572 -128.25, -11.3671375 -128.25 M-11.3671375 -128.25 C-11.3671375 -44.18339587506213, -11.3671375 39.883208249875736, -11.3671375 171 M-11.3671375 -128.25 C-11.3671375 -35.030040613762566, -11.3671375 58.18991877247487, -11.3671375 171 M-11.3671375 171 C-11.367172784770966 171, -11.367208069541935 171, -11.3672375 171 M-11.3671375 171 C-11.367167101010237 171, -11.367196702020474 171, -11.3672375 171 M-11.3672375 171 C-11.3672375 88.84538656475705, -11.3672375 6.690773129514099, -11.3672375 -128.25 M-11.3672375 171 C-11.3672375 70.35831243723769, -11.3672375 -30.28337512552463, -11.3672375 -128.25" stroke="#9370DB" stroke-width="1.3" fill="none" stroke-dasharray="0 0"/></g><g class="divider"><path d="M-126.6484375 -128.25005 L-126.6484375 -128.24995 L126.6484375 -128.24995 L126.6484375 -128.25005" stroke="none" stroke-width="0" fill="#ECECFF" fill-rule="evenodd"/><path d="M-126.6484375 -128.25005 C-126.6484375 -128.25002531755027, -126.6484375 -128.25000063510058, -126.6484375 -128.24995 M-126.6484375 -128.25005 C-126.6484375 -128.25001591848755, -126.6484375 -128.24998183697514, -126.6484375 -128.24995 M-126.6484375 -128.24995 C-72.99300967738753 -128.24995, -19.337581854775067 -128.24995, 126.6484375 -128.24995 M-126.6484375 -128.24995 C-42.7837115818792 -128.24995, 41.081014336241594 -128.24995, 126.6484375 -128.24995 M126.6484375 -128.24995 C126.6484375 -128.24997579944733, 126.6484375 -128.2500015988946, 126.6484375 -128.25005 M126.6484375 -128.24995 C126.6484375 -128.2499799965229, 126.6484375 -128.2500099930458, 126.6484375 -128.25005 M126.6484375 -128.25005 C63.32908904048063 -128.25005, 0.009740580961263845 -128.25005, -126.6484375 -128.25005 M126.6484375 -128.25005 C30.026555599455392 -128.25005, -66.59532630108922 -128.25005, -126.6484375 -128.25005" stroke="#9370DB" stroke-width="1.3" fill="none" stroke-dasharray="0 0"/></g></g></g></g></g><defs><filter id="my-svg-drop-shadow" height="130%" width="130%"><feDropShadow dx="4" dy="4" stdDeviation="0" flood-opacity="0.06" flood-color="#000000"/></filter></defs><defs><filter id="my-svg-drop-shadow-small" height="150%" width="150%"><feDropShadow dx="2" dy="2" stdDeviation="0" flood-opacity="0.06" flood-color="#000000"/></filter></defs></svg>